<svg width="77" height="21" viewBox="0 0 77 21" fill="none" xmlns="http://www.w3.org/2000/svg">
<path d="M8.90039 18.9336C9.18294 18.9336 9.42448 18.8333 9.625 18.6328C9.83464 18.4323 10.0124 18.1816 10.1582 17.8809C10.3132 17.5801 10.4362 17.2565 10.5273 16.9102C10.6276 16.5547 10.7096 16.222 10.7734 15.9121C10.8372 15.6204 10.9284 15.4108 11.0469 15.2832C11.1745 15.1465 11.3112 15.0781 11.457 15.0781C11.5664 15.0781 11.6758 15.1146 11.7852 15.1875C11.9036 15.2513 12.0085 15.3379 12.0996 15.4473C12.1999 15.5566 12.2773 15.6797 12.332 15.8164C12.3958 15.9531 12.4277 16.0898 12.4277 16.2266C12.4277 16.2448 12.4277 16.2676 12.4277 16.2949C12.4277 16.3223 12.4186 16.3633 12.4004 16.418C12.2819 16.8828 12.1178 17.3704 11.9082 17.8809C11.7077 18.3913 11.4479 18.8607 11.1289 19.2891C10.8099 19.7174 10.4225 20.0729 9.9668 20.3555C9.52018 20.638 8.99609 20.7793 8.39453 20.7793C7.90234 20.7793 7.47396 20.6745 7.10938 20.4648C6.74479 20.2552 6.45768 19.9772 6.24805 19.6309C5.96549 19.9499 5.6237 20.2188 5.22266 20.4375C4.83073 20.6654 4.37044 20.7793 3.8418 20.7793C3.29492 20.7793 2.81185 20.6699 2.39258 20.4512C1.98242 20.2324 1.63607 19.9362 1.35352 19.5625C1.07096 19.1797 0.856771 18.7331 0.710938 18.2227C0.574219 17.7031 0.505859 17.1471 0.505859 16.5547C0.505859 15.388 0.692708 14.3398 1.06641 13.4102C1.4401 12.4805 1.93685 11.6921 2.55664 11.0449C3.17643 10.3887 3.88281 9.88737 4.67578 9.54102C5.47786 9.19466 6.30729 9.02148 7.16406 9.02148C7.54688 9.02148 7.85677 9.1263 8.09375 9.33594C8.33073 9.54557 8.44922 9.83268 8.44922 10.1973C8.44922 10.4342 8.42188 10.6029 8.36719 10.7031C8.32161 10.7943 8.23047 10.8398 8.09375 10.8398C7.96615 10.8398 7.83398 10.8307 7.69727 10.8125C7.56055 10.7943 7.41927 10.7852 7.27344 10.7852C6.74479 10.7852 6.20703 10.9036 5.66016 11.1406C5.11328 11.3685 4.61654 11.724 4.16992 12.207C3.73242 12.681 3.3724 13.2871 3.08984 14.0254C2.80729 14.7546 2.66602 15.625 2.66602 16.6367C2.66602 17.375 2.80729 17.9447 3.08984 18.3457C3.3724 18.7376 3.75977 18.9336 4.25195 18.9336C4.63477 18.9336 4.95378 18.7923 5.20898 18.5098C5.46419 18.2181 5.66927 17.8763 5.82422 17.4844V13.1641C5.82422 13.0273 5.8151 12.9134 5.79688 12.8223C5.78776 12.7311 5.77409 12.6536 5.75586 12.5898C5.74674 12.526 5.73763 12.4714 5.72852 12.4258C5.7194 12.3711 5.71484 12.321 5.71484 12.2754C5.71484 12.1296 5.7832 12.0156 5.91992 11.9336C6.06576 11.8424 6.23893 11.7969 6.43945 11.7969C6.9043 11.7969 7.27344 11.9199 7.54688 12.166C7.82031 12.403 7.95703 12.6901 7.95703 13.0273V17.6484C7.95703 17.8034 7.97526 17.9583 8.01172 18.1133C8.04818 18.2591 8.10286 18.3958 8.17578 18.5234C8.2487 18.6419 8.3444 18.7422 8.46289 18.8242C8.59049 18.8971 8.73633 18.9336 8.90039 18.9336ZM18.6074 20.7793C18.2884 20.7793 17.9967 20.7292 17.7324 20.6289C17.4772 20.5286 17.2493 20.3874 17.0488 20.2051C16.8574 20.0319 16.6979 19.8268 16.5703 19.5898C16.4427 19.3438 16.3561 19.0794 16.3105 18.7969C15.9733 19.3893 15.5768 19.8724 15.1211 20.2461C14.6654 20.6198 14.1276 20.8066 13.5078 20.8066C13.043 20.8066 12.6237 20.7109 12.25 20.5195C11.8854 20.3281 11.5755 20.0592 11.3203 19.7129C11.0651 19.3574 10.8691 18.9336 10.7324 18.4414C10.6048 17.9401 10.541 17.3841 10.541 16.7734C10.541 16.0352 10.5911 15.2923 10.6914 14.5449C10.8008 13.7975 10.9193 13.123 11.0469 12.5215C11.1927 11.8197 11.3613 11.1406 11.5527 10.4844C11.5983 10.3659 11.6302 10.2474 11.6484 10.1289C11.6758 10.0013 11.7305 9.88737 11.8125 9.78711C11.8945 9.68685 12.0221 9.60482 12.1953 9.54102C12.3776 9.47721 12.6556 9.44531 13.0293 9.44531C13.3757 9.44531 13.599 9.50911 13.6992 9.63672C13.7995 9.75521 13.8359 9.89648 13.8086 10.0605C13.7904 10.2246 13.7357 10.3932 13.6445 10.5664C13.5625 10.7396 13.5078 10.8809 13.4805 10.9902C13.3529 11.5098 13.2389 11.9837 13.1387 12.4121C13.0384 12.8405 12.9518 13.2734 12.8789 13.7109C12.8151 14.1393 12.765 14.5905 12.7285 15.0645C12.6921 15.5293 12.6738 16.0534 12.6738 16.6367C12.6738 17.4023 12.7832 17.9811 13.002 18.373C13.2298 18.765 13.5488 18.9609 13.959 18.9609C14.2415 18.9609 14.5013 18.8561 14.7383 18.6465C14.9844 18.4368 15.2031 18.1589 15.3945 17.8125C15.5951 17.457 15.7682 17.056 15.9141 16.6094C16.0599 16.1536 16.1738 15.6797 16.2559 15.1875V10.6758C16.2559 10.4753 16.2376 10.3158 16.2012 10.1973C16.1738 10.0788 16.1419 9.98763 16.1055 9.92383C16.0781 9.85091 16.0462 9.79622 16.0098 9.75977C15.9824 9.71419 15.9688 9.66406 15.9688 9.60938C15.9688 9.5638 15.9961 9.52279 16.0508 9.48633C16.1055 9.44987 16.1784 9.41797 16.2695 9.39062C16.3607 9.36328 16.4564 9.34505 16.5566 9.33594C16.666 9.31771 16.7708 9.30859 16.8711 9.30859C17.3359 9.30859 17.7005 9.43164 17.9648 9.67773C18.2383 9.91471 18.375 10.2018 18.375 10.5391V17.6484C18.375 17.7122 18.3796 17.8171 18.3887 17.9629C18.3978 18.0996 18.4251 18.2409 18.4707 18.3867C18.5163 18.5326 18.5892 18.6602 18.6895 18.7695C18.7897 18.8789 18.931 18.9336 19.1133 18.9336C19.3958 18.9336 19.6374 18.8333 19.8379 18.6328C20.0475 18.4323 20.2253 18.1816 20.3711 17.8809C20.526 17.5801 20.6491 17.2565 20.7402 16.9102C20.8405 16.5547 20.9225 16.222 20.9863 15.9121C21.041 15.6204 21.1322 15.4108 21.2598 15.2832C21.3874 15.1465 21.5195 15.0781 21.6562 15.0781C21.7656 15.0781 21.8796 15.1146 21.998 15.1875C22.1165 15.2513 22.2214 15.3379 22.3125 15.4473C22.4128 15.5566 22.4902 15.6797 22.5449 15.8164C22.6087 15.9531 22.6406 16.0898 22.6406 16.2266C22.6406 16.2448 22.6406 16.2676 22.6406 16.2949C22.6406 16.3223 22.6315 16.3633 22.6133 16.418C22.4857 16.8828 22.3171 17.3704 22.1074 17.8809C21.9069 18.3913 21.6471 18.8607 21.3281 19.2891C21.0091 19.7174 20.6263 20.0729 20.1797 20.3555C19.7331 20.638 19.209 20.7793 18.6074 20.7793ZM25.5801 20.7793C24.9603 20.7793 24.3587 20.6654 23.7754 20.4375C23.1921 20.2096 22.6725 19.8724 22.2168 19.4258C21.7702 18.9792 21.4102 18.4277 21.1367 17.7715C20.8724 17.1152 20.7402 16.3542 20.7402 15.4883C20.7402 14.6862 20.8542 13.8978 21.082 13.123C21.3099 12.3483 21.6243 11.6602 22.0254 11.0586C22.4264 10.4479 22.9049 9.95573 23.4609 9.58203C24.026 9.20833 24.6413 9.02148 25.3066 9.02148C25.7897 9.02148 26.1999 9.12174 26.5371 9.32227C26.8743 9.51367 27.1478 9.75065 27.3574 10.0332C27.5671 10.3066 27.7174 10.6029 27.8086 10.9219C27.9089 11.2409 27.959 11.5234 27.959 11.7695C27.959 11.9518 27.9089 12.1159 27.8086 12.2617C27.7174 12.4076 27.6035 12.5306 27.4668 12.6309C27.3301 12.7311 27.1797 12.8086 27.0156 12.8633C26.8516 12.9089 26.7057 12.9271 26.5781 12.918C26.4505 12.9089 26.3457 12.8633 26.2637 12.7812C26.1908 12.6992 26.168 12.5762 26.1953 12.4121C26.1589 12.2936 26.1224 12.1478 26.0859 11.9746C26.0586 11.8014 26.0039 11.6374 25.9219 11.4824C25.849 11.3184 25.7441 11.1816 25.6074 11.0723C25.4707 10.9538 25.2839 10.8945 25.0469 10.8945C24.7917 10.8945 24.541 11.0176 24.2949 11.2637C24.0579 11.5007 23.8438 11.8288 23.6523 12.248C23.4701 12.6673 23.3197 13.1549 23.2012 13.7109C23.0918 14.2669 23.0371 14.8594 23.0371 15.4883C23.0371 16.0443 23.1055 16.5365 23.2422 16.9648C23.388 17.3932 23.5885 17.7533 23.8438 18.0449C24.099 18.3366 24.3997 18.5599 24.7461 18.7148C25.1016 18.8607 25.4844 18.9336 25.8945 18.9336C26.4414 18.9336 26.9154 18.8333 27.3164 18.6328C27.7266 18.4232 28.0729 18.1497 28.3555 17.8125C28.638 17.4753 28.8659 17.097 29.0391 16.6777C29.2122 16.2585 29.3398 15.8346 29.4219 15.4062C29.4857 15.0964 29.6133 14.8913 29.8047 14.791C30.0052 14.6816 30.2057 14.6543 30.4062 14.709C30.6159 14.7637 30.7936 14.8822 30.9395 15.0645C31.0944 15.2376 31.1582 15.4473 31.1309 15.6934C31.0944 15.9759 31.026 16.2995 30.9258 16.6641C30.8346 17.0286 30.6979 17.3978 30.5156 17.7715C30.3333 18.1452 30.1009 18.5143 29.8184 18.8789C29.5449 19.2344 29.2077 19.5534 28.8066 19.8359C28.4056 20.1185 27.9362 20.3464 27.3984 20.5195C26.8698 20.6927 26.2637 20.7793 25.5801 20.7793ZM26.8926 6.83398C27.1022 6.85221 27.3346 6.86589 27.5898 6.875C27.8086 6.89323 28.0729 6.9069 28.3828 6.91602C28.6927 6.91602 29.0391 6.92057 29.4219 6.92969V2.18555C29.4219 1.98503 29.4036 1.82552 29.3672 1.70703C29.3398 1.58854 29.3079 1.4974 29.2715 1.43359C29.2441 1.36068 29.2122 1.30599 29.1758 1.26953C29.1484 1.22396 29.1348 1.17839 29.1348 1.13281C29.1348 1.07812 29.1621 1.03255 29.2168 0.996094C29.2715 0.959635 29.3444 0.927734 29.4355 0.900391C29.5267 0.873047 29.6224 0.854818 29.7227 0.845703C29.832 0.827474 29.9368 0.818359 30.0371 0.818359C30.502 0.818359 30.8665 0.941406 31.1309 1.1875C31.4043 1.42448 31.541 1.71159 31.541 2.04883V6.95703C32.3978 6.95703 33.3001 6.94792 34.248 6.92969C35.2051 6.91146 36.1621 6.87956 37.1191 6.83398C37.2467 6.69727 37.347 6.64714 37.4199 6.68359C37.502 6.72005 37.5521 6.80664 37.5703 6.94336C37.5977 7.08008 37.6022 7.2487 37.584 7.44922C37.5658 7.64974 37.5293 7.8457 37.4746 8.03711C37.4199 8.2194 37.3424 8.37891 37.2422 8.51562C37.151 8.65234 37.0462 8.7207 36.9277 8.7207C35.8066 8.74805 34.8132 8.76628 33.9473 8.77539C33.0905 8.77539 32.2884 8.77539 31.541 8.77539V17.6484C31.541 18.1042 31.6276 18.4323 31.8008 18.6328C31.974 18.8333 32.2064 18.9336 32.498 18.9336C32.7806 18.9336 33.0221 18.8333 33.2227 18.6328C33.4323 18.4323 33.61 18.1816 33.7559 17.8809C33.9108 17.5801 34.0339 17.2565 34.125 16.9102C34.2253 16.5547 34.3073 16.222 34.3711 15.9121C34.4258 15.6204 34.5169 15.4108 34.6445 15.2832C34.7721 15.1465 34.9043 15.0781 35.041 15.0781C35.1504 15.0781 35.2643 15.1146 35.3828 15.1875C35.5013 15.2513 35.6061 15.3379 35.6973 15.4473C35.7975 15.5566 35.875 15.6797 35.9297 15.8164C35.9935 15.9531 36.0254 16.0898 36.0254 16.2266C36.0254 16.2448 36.0254 16.2676 36.0254 16.2949C36.0254 16.3223 36.0163 16.3633 35.998 16.418C35.8796 16.8828 35.7155 17.3704 35.5059 17.8809C35.3053 18.3913 35.041 18.8607 34.7129 19.2891C34.3939 19.7174 34.0111 20.0729 33.5645 20.3555C33.1178 20.638 32.5938 20.7793 31.9922 20.7793C31.6185 20.7793 31.2721 20.7201 30.9531 20.6016C30.6432 20.4922 30.3743 20.3099 30.1465 20.0547C29.9186 19.8086 29.7409 19.4896 29.6133 19.0977C29.4857 18.7057 29.4219 18.2318 29.4219 17.6758V8.77539C29.112 8.77539 28.834 8.77539 28.5879 8.77539C28.3509 8.76628 28.1504 8.75716 27.9863 8.74805C27.7949 8.73893 27.6263 8.72982 27.4805 8.7207C27.2617 8.7207 27.0703 8.625 26.9062 8.43359C26.7331 8.23307 26.6146 8.01432 26.5508 7.77734C26.4779 7.54036 26.4688 7.32617 26.5234 7.13477C26.569 6.93424 26.6921 6.83398 26.8926 6.83398ZM35.9844 6.5332C35.7565 6.5332 35.5378 6.48763 35.3281 6.39648C35.1276 6.30534 34.9499 6.18229 34.7949 6.02734C34.6491 5.8724 34.5306 5.69466 34.4395 5.49414C34.3483 5.28451 34.3027 5.0612 34.3027 4.82422C34.3027 4.57812 34.3483 4.35026 34.4395 4.14062C34.5306 3.93099 34.6491 3.75326 34.7949 3.60742C34.9499 3.45247 35.1276 3.33398 35.3281 3.25195C35.5378 3.16081 35.7565 3.11523 35.9844 3.11523C36.2305 3.11523 36.4583 3.16081 36.668 3.25195C36.8776 3.33398 37.0553 3.45247 37.2012 3.60742C37.3561 3.75326 37.4746 3.93099 37.5566 4.14062C37.6478 4.35026 37.6934 4.57812 37.6934 4.82422C37.6934 5.0612 37.6478 5.28451 37.5566 5.49414C37.4746 5.69466 37.3561 5.8724 37.2012 6.02734C37.0553 6.18229 36.8776 6.30534 36.668 6.39648C36.4583 6.48763 36.2305 6.5332 35.9844 6.5332ZM36.627 17.6484C36.627 17.7122 36.6315 17.8171 36.6406 17.9629C36.6497 18.0996 36.6771 18.2409 36.7227 18.3867C36.7682 18.5326 36.8411 18.6602 36.9414 18.7695C37.0417 18.8789 37.1829 18.9336 37.3652 18.9336C37.6387 18.9336 37.8757 18.8333 38.0762 18.6328C38.2858 18.4323 38.4635 18.1816 38.6094 17.8809C38.7643 17.5801 38.8919 17.2565 38.9922 16.9102C39.0924 16.5547 39.1745 16.222 39.2383 15.9121C39.293 15.6296 39.375 15.4245 39.4844 15.2969C39.6029 15.1693 39.7259 15.1009 39.8535 15.0918C39.9902 15.0736 40.1224 15.1055 40.25 15.1875C40.3867 15.2695 40.5052 15.3789 40.6055 15.5156C40.7148 15.6432 40.7923 15.7891 40.8379 15.9531C40.8926 16.1172 40.9017 16.2721 40.8652 16.418C40.7376 16.8828 40.569 17.3704 40.3594 17.8809C40.1589 18.3913 39.8991 18.8607 39.5801 19.2891C39.2611 19.7174 38.8783 20.0729 38.4316 20.3555C37.985 20.638 37.4609 20.7793 36.8594 20.7793C36.4857 20.7793 36.153 20.7064 35.8613 20.5605C35.5697 20.4238 35.3236 20.237 35.123 20C34.9225 19.763 34.7676 19.485 34.6582 19.166C34.5579 18.847 34.5078 18.5098 34.5078 18.1543V10.6758C34.5078 10.4115 34.485 10.2201 34.4395 10.1016C34.403 9.98307 34.3848 9.8737 34.3848 9.77344C34.3848 9.63672 34.4577 9.52734 34.6035 9.44531C34.7493 9.35417 34.9225 9.30859 35.123 9.30859C35.5879 9.30859 35.9525 9.43164 36.2168 9.67773C36.4902 9.91471 36.627 10.2018 36.627 10.5391V17.6484ZM49.5879 15.3789C49.6061 15.2695 49.6654 15.1784 49.7656 15.1055C49.875 15.0326 49.998 14.9824 50.1348 14.9551C50.2715 14.9277 50.4128 14.9277 50.5586 14.9551C50.7135 14.9824 50.8457 15.0462 50.9551 15.1465C51.0736 15.2376 51.1556 15.3698 51.2012 15.543C51.2559 15.707 51.2513 15.9212 51.1875 16.1855C51.1055 16.5684 50.9688 16.9284 50.7773 17.2656C50.5951 17.5938 50.3626 17.8854 50.0801 18.1406C49.7975 18.3958 49.4648 18.5964 49.082 18.7422C48.6992 18.888 48.2708 18.9609 47.7969 18.9609C47.5417 18.9609 47.3001 18.9473 47.0723 18.9199C46.8535 18.8926 46.6393 18.8424 46.4297 18.7695C46.0833 19.3711 45.6367 19.8542 45.0898 20.2188C44.543 20.5924 43.8685 20.7793 43.0664 20.7793C42.3555 20.7793 41.7448 20.638 41.2344 20.3555C40.724 20.082 40.3001 19.7083 39.9629 19.2344C39.6257 18.7513 39.375 18.1953 39.2109 17.5664C39.056 16.9375 38.9785 16.2721 38.9785 15.5703C38.9785 14.5404 39.097 13.6198 39.334 12.8086C39.5801 11.9883 39.8626 11.2956 40.1816 10.7305C40.5007 10.1562 40.8151 9.71875 41.125 9.41797C41.444 9.11719 41.681 8.9668 41.8359 8.9668C42.0182 8.9668 42.1823 9.04883 42.3281 9.21289C42.4831 9.36784 42.5924 9.55469 42.6562 9.77344C42.7292 9.98307 42.7474 10.1973 42.7109 10.416C42.6836 10.6348 42.5788 10.8034 42.3965 10.9219C42.2871 11.0951 42.1549 11.2956 42 11.5234C41.8542 11.7513 41.7129 12.0384 41.5762 12.3848C41.4486 12.722 41.3392 13.1367 41.248 13.6289C41.1569 14.1211 41.1113 14.7135 41.1113 15.4062C41.1113 15.9987 41.1615 16.5137 41.2617 16.9512C41.3711 17.3887 41.5169 17.7578 41.6992 18.0586C41.8906 18.3503 42.1048 18.569 42.3418 18.7148C42.5879 18.8607 42.8477 18.9336 43.1211 18.9336C43.5221 18.9336 43.8503 18.8379 44.1055 18.6465C44.3698 18.446 44.5931 18.1862 44.7754 17.8672C44.1191 17.3021 43.6178 16.5866 43.2715 15.7207C42.9342 14.8457 42.7656 13.9023 42.7656 12.8906C42.7656 12.4531 42.8112 12.0384 42.9023 11.6465C43.0026 11.2454 43.1439 10.8945 43.3262 10.5938C43.5176 10.293 43.7546 10.056 44.0371 9.88281C44.3197 9.70052 44.6478 9.60938 45.0215 9.60938C45.3496 9.60938 45.6595 9.72786 45.9512 9.96484C46.2428 10.2018 46.498 10.5299 46.7168 10.9492C46.9355 11.3685 47.1042 11.8652 47.2227 12.4395C47.3503 13.0137 47.4141 13.638 47.4141 14.3125C47.4141 14.832 47.3822 15.347 47.3184 15.8574C47.2546 16.3678 47.1543 16.86 47.0176 17.334C47.1178 17.3704 47.209 17.3932 47.291 17.4023C47.3822 17.4023 47.4779 17.4023 47.5781 17.4023C47.8789 17.4023 48.1432 17.3477 48.3711 17.2383C48.6081 17.1289 48.8086 16.9831 48.9727 16.8008C49.1367 16.6185 49.2689 16.4043 49.3691 16.1582C49.4694 15.9121 49.5423 15.6523 49.5879 15.3789ZM44.2422 12.7812C44.2422 13.4102 44.3379 14.0072 44.5293 14.5723C44.7298 15.1374 44.9896 15.6296 45.3086 16.0488C45.3633 15.6022 45.3906 15.1738 45.3906 14.7637C45.3906 14.2897 45.3815 13.8522 45.3633 13.4512C45.3542 13.041 45.3223 12.6901 45.2676 12.3984C45.222 12.1068 45.1536 11.8789 45.0625 11.7148C44.9805 11.5417 44.8665 11.4551 44.7207 11.4551C44.4017 11.4551 44.2422 11.8971 44.2422 12.7812ZM49.6016 10.6758C49.6016 10.4115 49.5788 10.2201 49.5332 10.1016C49.4967 9.98307 49.4785 9.8737 49.4785 9.77344C49.4785 9.63672 49.5514 9.52734 49.6973 9.44531C49.8431 9.35417 50.0163 9.30859 50.2168 9.30859C50.6816 9.30859 51.0462 9.43164 51.3105 9.67773C51.584 9.91471 51.7207 10.2018 51.7207 10.5391V11.7969C51.9121 11.4049 52.1172 11.0404 52.3359 10.7031C52.5638 10.3659 52.8053 10.0742 53.0605 9.82812C53.3249 9.57292 53.6029 9.37695 53.8945 9.24023C54.1953 9.0944 54.5189 9.02148 54.8652 9.02148C55.3301 9.02148 55.7129 9.10807 56.0137 9.28125C56.3145 9.45443 56.5514 9.67773 56.7246 9.95117C56.8978 10.2246 57.0163 10.5299 57.0801 10.8672C57.153 11.2044 57.1895 11.5326 57.1895 11.8516V17.6484C57.1895 17.7122 57.194 17.8171 57.2031 17.9629C57.2122 18.0996 57.2396 18.2409 57.2852 18.3867C57.3307 18.5326 57.3991 18.6602 57.4902 18.7695C57.5905 18.8789 57.7318 18.9336 57.9141 18.9336C58.1966 18.9336 58.4382 18.8333 58.6387 18.6328C58.8483 18.4323 59.026 18.1816 59.1719 17.8809C59.3268 17.5801 59.4499 17.2565 59.541 16.9102C59.6413 16.5547 59.7233 16.222 59.7871 15.9121C59.8418 15.6204 59.9329 15.4108 60.0605 15.2832C60.1882 15.1465 60.3203 15.0781 60.457 15.0781C60.5664 15.0781 60.6803 15.1146 60.7988 15.1875C60.9173 15.2513 61.0221 15.3379 61.1133 15.4473C61.2135 15.5566 61.291 15.6797 61.3457 15.8164C61.4095 15.9531 61.4414 16.0898 61.4414 16.2266C61.4414 16.2448 61.4414 16.2676 61.4414 16.2949C61.4414 16.3223 61.4323 16.3633 61.4141 16.418C61.2956 16.8828 61.1315 17.3704 60.9219 17.8809C60.7214 18.3913 60.457 18.8607 60.1289 19.2891C59.8099 19.7174 59.4271 20.0729 58.9805 20.3555C58.5339 20.638 58.0098 20.7793 57.4082 20.7793C57.0345 20.7793 56.7018 20.7064 56.4102 20.5605C56.1276 20.4238 55.8815 20.237 55.6719 20C55.4714 19.763 55.3164 19.485 55.207 19.166C55.1068 18.847 55.0566 18.5098 55.0566 18.1543V12.4668C55.0566 12.248 55.0521 12.043 55.043 11.8516C55.0339 11.6602 55.0065 11.4915 54.9609 11.3457C54.9245 11.1999 54.8652 11.0859 54.7832 11.0039C54.7103 10.9128 54.6055 10.8672 54.4688 10.8672C54.2682 10.8672 54.0221 11.0039 53.7305 11.2773C53.4388 11.5508 53.1517 11.9062 52.8691 12.3438C52.5866 12.7812 52.3359 13.278 52.1172 13.834C51.9076 14.3809 51.7754 14.9323 51.7207 15.4883V19.5762C51.7207 19.7129 51.7161 19.8542 51.707 20C51.707 20.1367 51.6797 20.2598 51.625 20.3691C51.5794 20.4876 51.502 20.5833 51.3926 20.6562C51.2923 20.7383 51.1419 20.7793 50.9414 20.7793C50.8047 20.7793 50.6543 20.7611 50.4902 20.7246C50.3353 20.6973 50.1895 20.638 50.0527 20.5469C49.9251 20.4648 49.8158 20.3418 49.7246 20.1777C49.6426 20.0228 49.6016 19.8132 49.6016 19.5488V10.6758ZM61.1953 6.5332C60.9674 6.5332 60.7487 6.48763 60.5391 6.39648C60.3385 6.30534 60.1608 6.18229 60.0059 6.02734C59.86 5.8724 59.7415 5.69466 59.6504 5.49414C59.5592 5.28451 59.5137 5.0612 59.5137 4.82422C59.5137 4.57812 59.5592 4.35026 59.6504 4.14062C59.7415 3.93099 59.86 3.75326 60.0059 3.60742C60.1608 3.45247 60.3385 3.33398 60.5391 3.25195C60.7487 3.16081 60.9674 3.11523 61.1953 3.11523C61.4414 3.11523 61.6693 3.16081 61.8789 3.25195C62.0885 3.33398 62.2663 3.45247 62.4121 3.60742C62.5671 3.75326 62.6855 3.93099 62.7676 4.14062C62.8587 4.35026 62.9043 4.57812 62.9043 4.82422C62.9043 5.0612 62.8587 5.28451 62.7676 5.49414C62.6855 5.69466 62.5671 5.8724 62.4121 6.02734C62.2663 6.18229 62.0885 6.30534 61.8789 6.39648C61.6693 6.48763 61.4414 6.5332 61.1953 6.5332ZM61.8379 17.6484C61.8379 17.7122 61.8424 17.8171 61.8516 17.9629C61.8607 18.0996 61.888 18.2409 61.9336 18.3867C61.9792 18.5326 62.0521 18.6602 62.1523 18.7695C62.2526 18.8789 62.3939 18.9336 62.5762 18.9336C62.8496 18.9336 63.0866 18.8333 63.2871 18.6328C63.4967 18.4323 63.6745 18.1816 63.8203 17.8809C63.9753 17.5801 64.1029 17.2565 64.2031 16.9102C64.3034 16.5547 64.3854 16.222 64.4492 15.9121C64.5039 15.6296 64.5859 15.4245 64.6953 15.2969C64.8138 15.1693 64.9368 15.1009 65.0645 15.0918C65.2012 15.0736 65.3333 15.1055 65.4609 15.1875C65.5977 15.2695 65.7161 15.3789 65.8164 15.5156C65.9258 15.6432 66.0033 15.7891 66.0488 15.9531C66.1035 16.1172 66.1126 16.2721 66.0762 16.418C65.9486 16.8828 65.7799 17.3704 65.5703 17.8809C65.3698 18.3913 65.11 18.8607 64.791 19.2891C64.472 19.7174 64.0892 20.0729 63.6426 20.3555C63.196 20.638 62.6719 20.7793 62.0703 20.7793C61.6966 20.7793 61.3639 20.7064 61.0723 20.5605C60.7806 20.4238 60.5345 20.237 60.334 20C60.1335 19.763 59.9785 19.485 59.8691 19.166C59.7689 18.847 59.7188 18.5098 59.7188 18.1543V10.6758C59.7188 10.4115 59.696 10.2201 59.6504 10.1016C59.6139 9.98307 59.5957 9.8737 59.5957 9.77344C59.5957 9.63672 59.6686 9.52734 59.8145 9.44531C59.9603 9.35417 60.1335 9.30859 60.334 9.30859C60.7988 9.30859 61.1634 9.43164 61.4277 9.67773C61.7012 9.91471 61.8379 10.2018 61.8379 10.5391V17.6484ZM72.4746 18.9336C72.7572 18.9336 72.9987 18.8333 73.1992 18.6328C73.4089 18.4323 73.5866 18.1816 73.7324 17.8809C73.8874 17.5801 74.0104 17.2565 74.1016 16.9102C74.2018 16.5547 74.2839 16.222 74.3477 15.9121C74.4115 15.6204 74.5026 15.4108 74.6211 15.2832C74.7487 15.1465 74.8854 15.0781 75.0312 15.0781C75.1406 15.0781 75.25 15.1146 75.3594 15.1875C75.4779 15.2513 75.5827 15.3379 75.6738 15.4473C75.7741 15.5566 75.8516 15.6797 75.9062 15.8164C75.9701 15.9531 76.002 16.0898 76.002 16.2266C76.002 16.2448 76.002 16.2676 76.002 16.2949C76.002 16.3223 75.9928 16.3633 75.9746 16.418C75.8561 16.8828 75.6921 17.3704 75.4824 17.8809C75.2819 18.3913 75.0221 18.8607 74.7031 19.2891C74.3841 19.7174 73.9967 20.0729 73.541 20.3555C73.0944 20.638 72.5703 20.7793 71.9688 20.7793C71.4766 20.7793 71.0482 20.6745 70.6836 20.4648C70.319 20.2552 70.0319 19.9772 69.8223 19.6309C69.5397 19.9499 69.1979 20.2188 68.7969 20.4375C68.4049 20.6654 67.9447 20.7793 67.416 20.7793C66.8691 20.7793 66.3861 20.6699 65.9668 20.4512C65.5566 20.2324 65.2103 19.9362 64.9277 19.5625C64.6452 19.1797 64.431 18.7331 64.2852 18.2227C64.1484 17.7031 64.0801 17.1471 64.0801 16.5547C64.0801 15.388 64.2669 14.3398 64.6406 13.4102C65.0143 12.4805 65.5111 11.6921 66.1309 11.0449C66.7507 10.3887 67.457 9.88737 68.25 9.54102C69.0521 9.19466 69.8815 9.02148 70.7383 9.02148C71.1211 9.02148 71.431 9.1263 71.668 9.33594C71.9049 9.54557 72.0234 9.83268 72.0234 10.1973C72.0234 10.4342 71.9961 10.6029 71.9414 10.7031C71.8958 10.7943 71.8047 10.8398 71.668 10.8398C71.5404 10.8398 71.4082 10.8307 71.2715 10.8125C71.1348 10.7943 70.9935 10.7852 70.8477 10.7852C70.319 10.7852 69.7812 10.9036 69.2344 11.1406C68.6875 11.3685 68.1908 11.724 67.7441 12.207C67.3066 12.681 66.9466 13.2871 66.6641 14.0254C66.3815 14.7546 66.2402 15.625 66.2402 16.6367C66.2402 17.375 66.3815 17.9447 66.6641 18.3457C66.9466 18.7376 67.334 18.9336 67.8262 18.9336C68.209 18.9336 68.528 18.7923 68.7832 18.5098C69.0384 18.2181 69.2435 17.8763 69.3984 17.4844V13.1641C69.3984 13.0273 69.3893 12.9134 69.3711 12.8223C69.362 12.7311 69.3483 12.6536 69.3301 12.5898C69.321 12.526 69.3118 12.4714 69.3027 12.4258C69.2936 12.3711 69.2891 12.321 69.2891 12.2754C69.2891 12.1296 69.3574 12.0156 69.4941 11.9336C69.64 11.8424 69.8132 11.7969 70.0137 11.7969C70.4785 11.7969 70.8477 11.9199 71.1211 12.166C71.3945 12.403 71.5312 12.6901 71.5312 13.0273V17.6484C71.5312 17.8034 71.5495 17.9583 71.5859 18.1133C71.6224 18.2591 71.6771 18.3958 71.75 18.5234C71.8229 18.6419 71.9186 18.7422 72.0371 18.8242C72.1647 18.8971 72.3105 18.9336 72.4746 18.9336Z" fill="white"/>
</svg>
