<svg width="20" height="16" viewBox="0 0 20 16" fill="none" xmlns="http://www.w3.org/2000/svg">
<path d="M19.2 8.00012C19.2 8.4485 18.8717 8.81906 18.4457 8.87771L18.3273 8.88579L2.98561 8.88533L8.52829 14.4867C8.86984 14.8318 8.87103 15.3926 8.53095 15.7392C8.22178 16.0544 7.73699 16.084 7.39479 15.8275L7.29672 15.7419L0.256725 8.6282L0.23947 8.60955C0.221594 8.59043 0.204549 8.57049 0.188396 8.54981L0.256725 8.6282C0.222807 8.59393 0.192246 8.55753 0.165044 8.51943C0.148599 8.4955 0.132641 8.47064 0.117919 8.44497C0.084661 8.38784 0.0588886 8.32806 0.0398773 8.26659C0.0334722 8.24492 0.0275185 8.22279 0.022405 8.20033C0.0182462 8.18319 0.0148273 8.16577 0.0119273 8.14828C0.00902789 8.12932 0.00649832 8.11035 0.00457053 8.0912C0.00238643 8.07199 0.00104503 8.05234 0.000346899 8.03268C0.000202686 8.02178 1.12057e-05 8.01097 1.12057e-05 8.00012L0.000271622 7.97071C0.000992582 7.9489 0.00250381 7.92711 0.0048045 7.90538L1.12057e-05 8.00012C1.12057e-05 7.94954 0.00418888 7.89996 0.0122121 7.8517C0.0157969 7.82971 0.020338 7.80763 0.0257151 7.78572C0.0300266 7.7683 0.0347675 7.7512 0.0399933 7.73432C0.0461612 7.71427 0.0532106 7.69406 0.0610036 7.67409C0.0690961 7.65346 0.0778481 7.63331 0.0873017 7.61356C0.0944648 7.59845 0.102482 7.58287 0.110987 7.56748C0.12703 7.53863 0.144012 7.51155 0.162348 7.48553C0.165233 7.48145 0.168466 7.47696 0.171746 7.47249C0.200853 7.43296 0.231021 7.39809 0.263675 7.36579L7.29667 0.258113C7.6382 -0.0870478 8.19078 -0.0858867 8.53089 0.260706C8.84009 0.57579 8.86725 1.06789 8.61304 1.41408L8.52834 1.51324L2.98668 7.1136L18.3273 7.11444C18.8093 7.11444 19.2 7.51097 19.2 8.00012Z" fill="#9DA3A5"/>
</svg>
