<svg width="24" height="30" viewBox="0 0 24 30" fill="none" xmlns="http://www.w3.org/2000/svg">
<path fill-rule="evenodd" clip-rule="evenodd" d="M11.4607 23.5068L3.04017 28.1199C2.36785 28.4693 1.53957 28.222 1.16893 27.5611C1.0617 27.3564 1.00385 27.1295 1 26.8984V6.45777C1 2.55936 3.66391 1 7.49734 1H16.5027C20.2191 1 23 2.4554 23 6.19787V26.8984C23 27.2672 22.8535 27.6208 22.5928 27.8816C22.332 28.1423 21.9783 28.2888 21.6096 28.2888C21.3744 28.2851 21.1431 28.2273 20.9338 28.1199L12.4613 23.5068C12.1491 23.3381 11.7729 23.3381 11.4607 23.5068Z" stroke="#F1A059" stroke-width="1.5" stroke-linecap="round" stroke-linejoin="round"/>
<path opacity="0.4" d="M6.78262 10.2912H17.1394" stroke="#F1A059" stroke-width="1.5" stroke-linecap="round" stroke-linejoin="round"/>
</svg>
