<svg width="26" height="26" viewBox="0 0 26 26" fill="none" xmlns="http://www.w3.org/2000/svg">
<path fill-rule="evenodd" clip-rule="evenodd" d="M13.0682 1.00001C8.85624 0.983084 4.94268 3.16845 2.7526 6.76042C0.562521 10.3524 0.415503 14.8268 2.36508 18.5544L2.60547 19.0229C2.80251 19.3917 2.84372 19.8237 2.71994 20.2229C2.3769 21.134 2.09019 22.0653 1.86141 23.0115C1.86141 23.4915 1.99877 23.7658 2.51389 23.7544C3.42628 23.5529 4.32481 23.2933 5.20398 22.9772C5.58263 22.8729 5.98524 22.8971 6.3487 23.0458C6.68066 23.2058 7.35605 23.6172 7.37894 23.6172C11.7898 25.9365 17.177 25.2967 20.9197 22.0089C24.6625 18.7211 25.9839 13.468 24.2411 8.80485C22.4984 4.14171 18.0533 1.03664 13.0682 1.00001Z" stroke="#F1A059" stroke-width="1.5" stroke-linecap="round" stroke-linejoin="round"/>
<path opacity="0.4" d="M7.34459 14.2001C8.00733 14.2001 8.54459 13.6628 8.54459 13.0001C8.54459 12.3373 8.00733 11.8001 7.34459 11.8001C6.68185 11.8001 6.14459 12.3373 6.14459 13.0001C6.14459 13.6628 6.68185 14.2001 7.34459 14.2001Z" fill="#F1A059" stroke="#F1A059" stroke-width="1.5" stroke-linecap="round" stroke-linejoin="round"/>
<path opacity="0.4" d="M13.0682 14.2001C13.7309 14.2001 14.2682 13.6628 14.2682 13.0001C14.2682 12.3373 13.7309 11.8001 13.0682 11.8001C12.4055 11.8001 11.8682 12.3373 11.8682 13.0001C11.8682 13.6628 12.4055 14.2001 13.0682 14.2001Z" fill="#F1A059" stroke="#F1A059" stroke-width="1.5" stroke-linecap="round" stroke-linejoin="round"/>
<path opacity="0.4" d="M18.7918 14.2001C19.4545 14.2001 19.9918 13.6628 19.9918 13.0001C19.9918 12.3373 19.4545 11.8001 18.7918 11.8001C18.129 11.8001 17.5918 12.3373 17.5918 13.0001C17.5918 13.6628 18.129 14.2001 18.7918 14.2001Z" fill="#F1A059" stroke="#F1A059" stroke-width="1.5" stroke-linecap="round" stroke-linejoin="round"/>
</svg>
