<svg width="46" height="46" viewBox="0 0 46 46" fill="none" xmlns="http://www.w3.org/2000/svg">
<path d="M46 23C46 35.7026 35.7026 46 23 46C10.2974 46 0 35.7026 0 23C0 10.2974 10.2974 0 23 0C35.7026 0 46 10.2974 46 23Z" fill="#7CD2E3"/>
<path d="M0.00619922 22.4609H45.9938C45.9979 22.6402 46 22.8199 46 23C46 35.7026 35.7026 46 23 46C10.2974 46 0 35.7026 0 23C0 22.8199 0.00206641 22.6402 0.00619922 22.4609Z" fill="#44BFD7"/>
<path d="M16.2617 7.41211V10.1074C16.2617 10.3555 16.0606 10.5566 15.8125 10.5566H13.1172C12.8691 10.5566 12.668 10.3555 12.668 10.1074V7.41211C12.668 7.16405 12.8691 6.96289 13.1172 6.96289H15.8125C16.0606 6.96289 16.2617 7.16405 16.2617 7.41211ZM31.0859 6.96289H28.3906C28.1426 6.96289 27.9414 7.16405 27.9414 7.41211V10.1074C27.9414 10.3555 28.1426 10.5566 28.3906 10.5566H31.0859C31.334 10.5566 31.5352 10.3555 31.5352 10.1074V7.41211C31.5352 7.16405 31.334 6.96289 31.0859 6.96289Z" fill="#FFF5F5"/>
<path d="M27.043 2.69531H17.1602C15.3024 2.69531 13.791 4.20666 13.791 6.06445V10.5566C13.791 12.4144 15.3024 13.9258 17.1602 13.9258H27.043C28.9008 13.9258 30.4121 12.4144 30.4121 10.5566V6.06445C30.4121 4.20666 28.9008 2.69531 27.043 2.69531ZM29.0645 10.5566C29.0645 11.6712 28.1577 12.5781 27.043 12.5781H17.1602C16.0455 12.5781 15.1387 11.6712 15.1387 10.5566V6.06445C15.1387 4.94985 16.0455 4.04297 17.1602 4.04297H27.043C28.1577 4.04297 29.0645 4.94985 29.0645 6.06445V10.5566Z" fill="#533672"/>
<path d="M40.6094 14.1504V32.1191C40.6094 35.0963 38.1959 37.5098 35.2188 37.5098H8.98438C6.00722 37.5098 3.59375 35.0963 3.59375 32.1191V14.1504C3.59375 11.1732 6.00722 8.75977 8.98438 8.75977H35.2188C38.1959 8.75977 40.6094 11.1732 40.6094 14.1504Z" fill="#754CA0"/>
<path d="M40.6094 14.1504V32.1191C40.6094 35.0963 38.1959 37.5098 35.2188 37.5098H12.5781C9.60097 37.5098 7.1875 35.0963 7.1875 32.1191V14.1504C7.1875 11.1732 9.60097 8.75977 12.5781 8.75977H35.2188C38.1959 8.75977 40.6094 11.1732 40.6094 14.1504Z" fill="#865CB2"/>
<path d="M32.4336 22.6855C32.4336 28.3918 27.8078 33.0176 22.1016 33.0176C16.3953 33.0176 11.7695 28.3918 11.7695 22.6855C11.7695 16.9793 16.3953 12.3535 22.1016 12.3535C27.8078 12.3535 32.4336 16.9793 32.4336 22.6855Z" fill="#754CA0"/>
<path d="M27.043 22.6855C27.043 25.4146 24.8307 27.627 22.1016 27.627C19.3725 27.627 17.1602 25.4146 17.1602 22.6855C17.1602 19.9565 19.3725 17.7441 22.1016 17.7441C24.8307 17.7441 27.043 19.9565 27.043 22.6855Z" fill="#644189"/>
<path d="M22.1647 29.3467C21.9165 29.3467 21.692 29.2462 21.5294 29.0836C21.3668 28.921 21.2662 28.6965 21.2662 28.4483V23.97H16.788C16.5398 23.97 16.3153 23.8695 16.1527 23.7069C15.9901 23.5443 15.8895 23.3198 15.8895 23.0716C15.8895 22.5754 16.2918 22.1732 16.788 22.1732H21.2662V17.8212C21.2662 17.325 21.6685 16.9228 22.1647 16.9228C22.661 16.9229 23.0631 17.325 23.0631 17.8212V22.1732H27.415C27.9113 22.1733 28.3135 22.5754 28.3135 23.0716C28.3135 23.5678 27.9112 23.97 27.415 23.97H23.0631V28.4483C23.0631 28.9445 22.6609 29.3467 22.1647 29.3467V29.3467Z" fill="#FFF5F5"/>
<path d="M35.4883 34.1406H34.1406C33.3964 34.1406 32.793 33.5372 32.793 32.793V21.1133C32.793 20.369 33.3964 19.7656 34.1406 19.7656H35.4883C36.2325 19.7656 36.8359 20.369 36.8359 21.1133V32.793C36.8359 33.5372 36.2325 34.1406 35.4883 34.1406Z" fill="#FB5858"/>
<path d="M36.8359 22.0117C36.8359 22.3839 36.5342 22.6855 36.1621 22.6855C35.79 22.6855 35.4883 22.3839 35.4883 22.0117C35.4883 21.6396 35.79 21.3379 36.1621 21.3379C36.5342 21.3379 36.8359 21.6396 36.8359 22.0117Z" fill="#AF2727"/>
<path d="M37.0605 39.5312H32.5684C31.5759 39.5312 30.7715 38.7268 30.7715 37.7344V26.9531C30.7715 25.9607 31.5759 25.1562 32.5684 25.1562H37.0605C38.053 25.1562 38.8574 25.9607 38.8574 26.9531V37.7344C38.8574 38.7268 38.053 39.5312 37.0605 39.5312Z" fill="#DCE6EB"/>
<path d="M39.7559 42.2266H29.873C28.8806 42.2266 28.0762 41.4221 28.0762 40.4297V29.6484C28.0762 28.656 28.8806 27.8516 29.873 27.8516H39.7559C40.7483 27.8516 41.5527 28.656 41.5527 29.6484V40.4297C41.5527 41.4221 40.7483 42.2266 39.7559 42.2266Z" fill="#B9C3CD"/>
<path d="M36.0498 37.8467C33.0106 37.8467 30.5469 35.3829 30.5469 32.3438V29.6484C30.5469 28.656 31.3513 27.8516 32.3438 27.8516H39.7559C40.7483 27.8516 41.5527 28.656 41.5527 29.6484V32.3438C41.5527 35.3829 39.0889 37.8467 36.0498 37.8467Z" fill="#C8D2DC"/>
<path d="M38.1836 35.0391C37.4393 35.0391 36.8359 34.4357 36.8359 33.6914V30.9961C36.8359 30.2518 37.4393 29.6484 38.1836 29.6484C38.9279 29.6484 39.5312 30.2518 39.5312 30.9961V33.6914C39.5312 34.4357 38.9279 35.0391 38.1836 35.0391Z" fill="#DCE6EB"/>
<path d="M38.0488 22.6855H37.959C37.5868 22.6855 37.2852 22.3839 37.2852 22.0117C37.2852 21.6396 37.5868 21.3379 37.959 21.3379H38.0488C38.4211 21.3379 38.7227 21.6396 38.7227 22.0117C38.7227 22.3839 38.4211 22.6855 38.0488 22.6855ZM41.4122 22.0117C41.4122 21.6396 41.1106 21.3379 40.7384 21.3379H40.5703C40.1981 21.3379 39.8965 21.6396 39.8965 22.0117C39.8965 22.3839 40.1981 22.6855 40.5703 22.6855H40.7384C41.1105 22.6855 41.4122 22.3839 41.4122 22.0117ZM44.0234 22.0117C44.0234 21.6396 43.7218 21.3379 43.3496 21.3379H43.2598C42.8875 21.3379 42.5859 21.6396 42.5859 22.0117C42.5859 22.3839 42.8875 22.6855 43.2598 22.6855H43.3496C43.7218 22.6855 44.0234 22.3839 44.0234 22.0117ZM38.8336 19.7371C38.7093 19.3863 38.3242 19.2027 37.9734 19.327L37.8886 19.357C37.5378 19.4814 37.3543 19.8665 37.4786 20.2173C37.6029 20.568 37.988 20.7517 38.3388 20.6273L38.4236 20.5973C38.7744 20.473 38.958 20.0879 38.8336 19.7371ZM41.3686 18.8386C41.2443 18.4879 40.8592 18.3042 40.5084 18.4286L40.3499 18.4847C39.9991 18.6091 39.8156 18.9942 39.9399 19.345C40.0642 19.6957 40.4493 19.8794 40.8001 19.755L40.9586 19.6989C41.3094 19.5745 41.493 19.1894 41.3686 18.8386ZM43.8299 17.9662C43.7056 17.6155 43.3205 17.4318 42.9697 17.5562L42.8849 17.5862C42.5341 17.7105 42.3506 18.0957 42.4749 18.4464C42.5992 18.7972 42.9843 18.9808 43.3351 18.8565L43.4199 18.8265C43.7707 18.7021 43.9542 18.3171 43.8299 17.9662ZM42.8849 26.4393L42.9697 26.4693C43.3205 26.5937 43.7056 26.4101 43.8299 26.0593C43.9543 25.7085 43.7707 25.3234 43.4199 25.199L43.3351 25.169C42.9843 25.0447 42.5992 25.2282 42.4749 25.5791C42.3505 25.9299 42.5342 26.315 42.8849 26.4393ZM40.35 25.5409L40.5085 25.597C40.8593 25.7214 41.2444 25.5378 41.3687 25.187C41.4931 24.8362 41.3095 24.4511 40.9587 24.3267L40.8002 24.2706C40.4494 24.1462 40.0643 24.3298 39.94 24.6806C39.8156 25.0314 39.9992 25.4165 40.35 25.5409ZM37.8887 24.6685L37.9735 24.6985C38.3243 24.8228 38.7094 24.6393 38.8337 24.2884C38.958 23.9376 38.7745 23.5525 38.4237 23.4282L38.3389 23.3982C37.9881 23.2738 37.603 23.4574 37.4787 23.8082C37.3544 24.1591 37.5379 24.5441 37.8887 24.6685Z" fill="#FFF5F5"/>
<path d="M31.0859 40.4297H14.9141C14.1698 40.4297 13.5664 39.8263 13.5664 39.082V34.5898C13.5664 33.8456 14.1698 33.2422 14.9141 33.2422H31.0859C31.8302 33.2422 32.4336 33.8456 32.4336 34.5898V39.082C32.4336 39.8263 31.8302 40.4297 31.0859 40.4297Z" fill="#FFD399"/>
<path d="M31.0859 40.4297H17.5195C16.7753 40.4297 16.1719 39.8263 16.1719 39.082V34.5898C16.1719 33.8456 16.7753 33.2422 17.5195 33.2422H31.0859C31.8302 33.2422 32.4336 33.8456 32.4336 34.5898V39.082C32.4336 39.8263 31.8302 40.4297 31.0859 40.4297Z" fill="#FFE7C0"/>
<path d="M26.5039 39.3066H20.2148C19.9668 39.3066 19.7656 39.1055 19.7656 38.8574V34.8145C19.7656 34.5664 19.9668 34.3652 20.2148 34.3652H26.5039C26.752 34.3652 26.9531 34.5664 26.9531 34.8145V38.8574C26.9531 39.1055 26.752 39.3066 26.5039 39.3066Z" fill="#FFD399"/>
<path d="M22.0117 39.3066H20.2148C19.9668 39.3066 19.7656 39.1055 19.7656 38.8574V34.8145C19.7656 34.5664 19.9668 34.3652 20.2148 34.3652H22.0117C21.7637 34.3652 21.5625 34.5664 21.5625 34.8145V38.8574C21.5625 39.1055 21.7637 39.3066 22.0117 39.3066ZM17.0703 38.1836C17.0703 37.6874 16.6681 37.2852 16.1719 37.2852C15.6757 37.2852 15.2734 37.6874 15.2734 38.1836C15.2734 38.6798 15.6757 39.082 16.1719 39.082C16.6681 39.082 17.0703 38.6798 17.0703 38.1836ZM30.5469 39.082C30.0507 39.082 29.6484 38.6798 29.6484 38.1836C29.6484 37.6874 30.0507 37.2852 30.5469 37.2852C31.0431 37.2852 31.4453 37.6874 31.4453 38.1836C31.4453 38.6798 31.0431 39.082 30.5469 39.082ZM16.1719 35.9375C15.6757 35.9375 15.2734 35.5353 15.2734 35.0391C15.2734 34.5429 15.6757 34.1406 16.1719 34.1406C16.6681 34.1406 17.0703 34.5429 17.0703 35.0391C17.0703 35.5353 16.6681 35.9375 16.1719 35.9375ZM30.5469 35.9375C30.0507 35.9375 29.6484 35.5353 29.6484 35.0391C29.6484 34.5429 30.0507 34.1406 30.5469 34.1406C31.0431 34.1406 31.4453 34.5429 31.4453 35.0391C31.4453 35.5353 31.0431 35.9375 30.5469 35.9375Z" fill="#FFC477"/>
<path d="M21.5625 44.0234H19.7656C19.2694 44.0234 18.8672 43.6212 18.8672 43.125C18.8672 42.6288 19.2694 42.2266 19.7656 42.2266H21.5625C22.0587 42.2266 22.4609 42.6288 22.4609 43.125C22.4609 43.6212 22.0587 44.0234 21.5625 44.0234ZM13.9803 42.172C13.6295 41.8212 13.0606 41.8212 12.7097 42.172L11.4392 43.4426C11.0883 43.7934 11.0883 44.3623 11.4392 44.7132C11.79 45.064 12.3589 45.064 12.7097 44.7132L13.9803 43.4426C14.3311 43.0918 14.3311 42.523 13.9803 42.172Z" fill="#644189"/>
<path d="M22.4609 44.0234H21.6523C21.1561 44.0234 20.7538 43.6212 20.7538 43.125C20.7538 42.6288 21.1561 42.2266 21.6523 42.2266H22.4609C22.9571 42.2266 23.3593 42.6288 23.3593 43.125C23.3593 43.6212 22.9571 44.0234 22.4609 44.0234ZM14.6155 41.5367C14.2647 41.1859 13.6958 41.1859 13.345 41.5367L12.7732 42.1085C12.4224 42.4593 12.4224 43.0282 12.7732 43.3791C13.124 43.7299 13.6929 43.7299 14.0438 43.3791L14.6155 42.8073C14.9664 42.4565 14.9664 41.8877 14.6155 41.5367Z" fill="#FB5858"/>
</svg>
