<svg width="28" height="28" viewBox="0 0 28 28" fill="none" xmlns="http://www.w3.org/2000/svg">
<path d="M14 7.5H8.5C8.40186 7.5 8.31009 7.47119 8.23264 7.42188C8.09308 7.33301 8 7.17676 8 7V6.5C8 6.2251 8.22501 6 8.5 6H14C14.275 6 14.5 6.2251 14.5 6.5V7C14.5 7.2749 14.275 7.5 14 7.5Z" fill="#8E8E93"/>
<path d="M8 21.5C8 21.7749 8.22501 22 8.5 22H19.5C19.775 22 20 21.7749 20 21.5V10.5C20 10.2251 19.775 10 19.5 10H8.5C8.22501 10 8 10.2251 8 10.5V21.5Z" fill="#8E8E93"/>
<path fill-rule="evenodd" clip-rule="evenodd" d="M7.5 3H20.5C21.8805 3 23 4.11914 23 5.5V22.5C23 23.8809 21.8805 25 20.5 25H7.5C6.11951 25 5 23.8809 5 22.5V5.5C5 4.11914 6.11951 3 7.5 3ZM21.5 5.5C21.5 4.94873 21.0515 4.5 20.5 4.5H7.5C6.94849 4.5 6.5 4.94873 6.5 5.5V22.5C6.5 23.0513 6.94849 23.5 7.5 23.5H20.5C21.0515 23.5 21.5 23.0513 21.5 22.5V5.5Z" fill="#8E8E93"/>
</svg>
