<svg width="24" height="28" viewBox="0 0 24 28" fill="none" xmlns="http://www.w3.org/2000/svg">
<path d="M17.1507 0C21.412 0 23.96 2.688 24 7.1848V20.7074C24 25.2672 21.4453 28 17.1507 28H6.85067C6.30133 28 5.78 27.9552 5.28933 27.867L4.99867 27.8096C1.83733 27.1194 0 24.577 0 20.7074V7.2926C0 6.825 0.0266667 6.377 0.08 5.9486C0.545333 2.1896 3.00533 0 6.85067 0H17.1507ZM17.1387 2.0398H6.85067C3.576 2.0398 1.916 3.808 1.916 7.2926V20.7074C1.916 24.192 3.576 25.9602 6.85067 25.9602H17.1387C20.412 25.9602 22.0613 24.192 22.0613 20.7074V7.2926C22.0613 3.808 20.412 2.0398 17.1387 2.0398ZM16.7907 18.914C17.316 18.914 17.7413 19.3676 17.7413 19.9276C17.7413 20.4876 17.316 20.9412 16.7907 20.9412H7.176C6.65067 20.9412 6.224 20.4876 6.224 19.9276C6.224 19.3676 6.65067 18.914 7.176 18.914H16.7907ZM16.7907 12.9794C17.1573 12.9374 17.516 13.1222 17.712 13.454C17.908 13.7886 17.908 14.2114 17.712 14.546C17.516 14.8778 17.1573 15.0626 16.7907 15.0206H7.176C6.688 14.9618 6.31867 14.5236 6.31867 14C6.31867 13.4764 6.688 13.0368 7.176 12.9794H16.7907ZM10.8453 7.0588C11.3333 7.1162 11.7027 7.5558 11.7027 8.0794C11.7027 8.6016 11.3333 9.0412 10.8453 9.0986H7.188C6.69867 9.0412 6.32933 8.6016 6.32933 8.0794C6.32933 7.5558 6.69867 7.1162 7.188 7.0588H10.8453Z" fill="#200E32"/>
</svg>
