<svg width="17" height="17" viewBox="0 0 17 17" fill="none" xmlns="http://www.w3.org/2000/svg">
<path d="M3.90855 0.723333C5.38837 0.247325 6.98967 0.418616 8.3295 1.17886L8.55131 1.31197L8.7771 1.17812C10.0474 0.45892 11.5543 0.26674 12.9723 0.656756L13.196 0.723382C16.2888 1.71913 17.6736 5.09615 16.6332 8.32743C16.1116 9.83055 15.2561 11.1934 14.1269 12.3167C12.5903 13.809 10.8964 15.1268 9.07799 16.245L8.88495 16.365C8.68893 16.4868 8.44118 16.4889 8.24314 16.3704L8.03635 16.2465C6.21544 15.1268 4.52152 13.809 2.97965 12.3115C1.8557 11.1934 1.00022 9.83055 0.474202 8.31426C-0.562392 5.09419 0.816683 1.71877 3.90855 0.723333ZM8.02774 2.44037C6.92956 1.68973 5.55083 1.48805 4.28617 1.89484C1.89116 2.66592 0.805366 5.32352 1.64241 7.92423C2.10279 9.25087 2.85755 10.4533 3.84346 11.4341C5.31541 12.8636 6.93792 14.1259 8.67565 15.1945L8.55542 15.1187L8.94941 14.871C10.3249 13.9828 11.6205 12.975 12.8185 11.8617L13.2631 11.4393C14.2543 10.4533 15.0091 9.25087 15.465 7.93739C16.3057 5.326 15.2151 2.66653 12.8189 1.89504C11.491 1.46904 10.0415 1.71304 8.9215 2.55151C8.70647 2.71249 8.4118 2.7156 8.19341 2.5592L8.02774 2.44037ZM11.8135 3.81255C12.9263 4.16773 13.7154 5.164 13.8139 6.33448C13.8424 6.67315 13.5907 6.97078 13.2518 6.99925C12.9128 7.02772 12.6149 6.77625 12.5865 6.43758C12.5296 5.76143 12.0755 5.18823 11.4387 4.98496C11.1147 4.88154 10.9359 4.53525 11.0394 4.2115C11.1429 3.88775 11.4895 3.70913 11.8135 3.81255Z" fill="#9DA3A5"/>
</svg>
