<svg width="24" height="26" viewBox="0 0 24 26" fill="none" xmlns="http://www.w3.org/2000/svg">
<path d="M9.13263 1.02449C10.7368 -0.287344 12.9853 -0.339349 14.6387 0.868472L14.8421 1.02449L22.5335 7.35742C23.3798 8.03219 23.8989 9.03459 23.9874 10.1254L24 10.3867V20.9295C24 23.6468 21.9145 25.857 19.3011 26H16.7874C15.5861 25.9753 14.6147 25.0132 14.5263 23.8041L14.5137 23.6208V19.9037C14.5137 19.4993 14.2219 19.1626 13.8316 19.0963L13.7179 19.0833H10.344C9.94105 19.0963 9.61263 19.3953 9.56211 19.7854L9.54947 19.9037V23.6091C9.54947 23.6858 9.53558 23.7768 9.52421 23.8418L9.51158 23.8691L9.49768 23.9588C9.34737 25.0652 8.46316 25.909 7.36421 25.9883L7.2 26H4.93895C2.29895 26 0.138947 23.8691 0 21.1895V10.3867C0.0113684 9.28032 0.48 8.25321 1.26316 7.53814L9.13263 1.02449ZM13.7432 2.44163C12.7832 1.64855 11.4189 1.61085 10.4084 2.29862L10.2177 2.44163L2.53768 8.81357C2.09684 9.15031 1.83158 9.65736 1.76842 10.1904L1.75453 10.3984V20.9295C1.75453 22.6587 3.06821 24.0758 4.73684 24.1798H7.2C7.47789 24.1798 7.71789 23.9861 7.75453 23.7131L7.78105 23.479L7.79368 23.4127V19.9037C7.79368 18.5125 8.82947 17.3814 10.1558 17.2761H13.7179C15.0682 17.2761 16.1672 18.3435 16.2695 19.7087V23.6208C16.2695 23.8938 16.4589 24.1291 16.7116 24.1798H19.0598C20.7524 24.1798 22.1293 22.842 22.2303 21.1375L22.2442 20.9295V10.3984C22.2303 9.84067 22.0042 9.31932 21.6126 8.93058L21.4484 8.78627L13.7432 2.44163Z" fill="#A1A1A1"/>
</svg>
