<svg width="28" height="28" viewBox="0 0 28 28" fill="none" xmlns="http://www.w3.org/2000/svg">
<path fill-rule="evenodd" clip-rule="evenodd" d="M11.0752 8.41522C14.742 4.34285 19.2241 2.20444 24.5216 2C24.872 7.28983 23.2138 11.9709 19.547 16.0433C18.9786 16.6747 18.2942 17.2853 17.4939 17.8752C17.9915 19.6316 17.6979 21.1035 16.6131 22.2907C14.952 24.1086 13.1515 25.0124 11.2115 25.002C10.9666 23.67 11.0041 22.1339 11.324 20.3936C10.8684 20.4319 10.0037 20.1468 8.99774 19.241C7.99175 18.3352 7.61782 17.5051 7.60828 17.0479C5.91093 17.5479 4.38713 17.7458 3.03688 17.6415C2.82374 15.7133 3.53435 13.8281 5.16871 11.9861C6.23604 10.7831 7.66912 10.3373 9.46794 10.6486C9.97096 9.79103 10.5067 9.04658 11.0752 8.41522ZM16.1574 11.2895C16.9783 12.0286 18.2429 11.9624 18.982 11.1415C19.7211 10.3206 19.6548 9.05605 18.8339 8.31695C18.0131 7.57785 16.7485 7.64412 16.0094 8.46498C15.2703 9.28583 15.3366 10.5504 16.1574 11.2895ZM6.29011 22.2481C8.04149 22.3575 9.04449 21.9166 9.29909 20.9253C9.42816 21.001 9.55269 21.0666 9.67202 21.1229C9.51564 22.9789 7.97284 23.8154 5.04363 23.6324C4.55548 20.7384 5.22614 19.1166 7.05562 18.7671C7.12409 18.8799 7.20235 18.9969 7.2911 19.1173C6.3319 19.4741 5.99824 20.5177 6.29011 22.2481Z" fill="#007AFF"/>
</svg>
