<svg width="28" height="28" viewBox="0 0 28 28" fill="none" xmlns="http://www.w3.org/2000/svg">
<path fill-rule="evenodd" clip-rule="evenodd" d="M5.7726 4C5.31753 4 4.91985 4.30725 4.80498 4.74758L2.06477 15.2517C2.02176 15.4166 2 15.5862 2 15.7566V21.5V23C2 23.5523 2.44775 24 3 24H24C24.5522 24 25 23.5523 25 23V21.5V15.7566C25 15.5862 24.9782 15.4166 24.9352 15.2517L22.195 4.74758C22.0802 4.30725 21.6825 4 21.2274 4H5.7726ZM6.15894 5.5L3.55029 15.5H9.5C10.0523 15.5 10.5 15.9477 10.5 16.5V17C10.5 18.6569 11.8433 20 13.5 20C15.1567 20 16.5 18.6569 16.5 17V16.5C16.5 15.9477 16.9477 15.5 17.5 15.5H23.4497L20.8411 5.5H6.15894Z" fill="#007AFF"/>
</svg>
