<svg width="28" height="28" viewBox="0 0 28 28" fill="none" xmlns="http://www.w3.org/2000/svg">
<rect width="28" height="28" fill="white"/>
<path fill-rule="evenodd" clip-rule="evenodd" d="M14 4.66666C11.4217 4.66666 9.33335 6.75499 9.33335 9.33332C9.33335 11.9117 11.4217 14 14 14C16.5784 14 18.6667 11.9117 18.6667 9.33332C18.6667 6.75499 16.5784 4.66666 14 4.66666ZM16.3334 9.33332C16.3334 8.04999 15.2834 6.99999 14 6.99999C12.7167 6.99999 11.6667 8.04999 11.6667 9.33332C11.6667 10.6167 12.7167 11.6667 14 11.6667C15.2834 11.6667 16.3334 10.6167 16.3334 9.33332ZM21 19.8333C20.7667 19.005 17.15 17.5 14 17.5C10.85 17.5 7.23335 19.005 7.00002 19.845V21H21V19.8333ZM4.66669 19.8333C4.66669 16.73 10.885 15.1667 14 15.1667C17.115 15.1667 23.3334 16.73 23.3334 19.8333V23.3333H4.66669V19.8333Z" fill="#CACBD5"/>
</svg>
