<svg width="24" height="26" viewBox="0 0 24 26" fill="none" xmlns="http://www.w3.org/2000/svg">
<path d="M8.74511 16.6672C10.9108 16.5016 13.0889 16.5016 15.2546 16.6672L15.946 16.7179C16.8918 16.7987 17.8309 16.9252 18.7551 17.0962C21.1106 17.5167 22.8211 18.2627 23.5782 19.6466C24.1407 20.6761 24.1407 21.8713 23.5779 22.9013C22.8189 24.2887 21.0864 25.0409 18.7726 25.4365L18.0716 25.5627C17.1347 25.7185 16.1898 25.8249 15.2513 25.8805C13.4902 26.0105 11.7208 26.0342 10.014 25.9528C9.8259 25.9528 9.69962 25.9522 9.58836 25.95L9.37197 25.943C9.10889 25.9313 8.86786 25.9074 8.76673 25.8818C7.57929 25.8118 6.39976 25.6629 5.26822 25.4416L4.88439 25.3722C2.74174 24.9596 1.15494 24.2152 0.420956 22.8999C0.142978 22.3895 -0.000804818 21.8316 2.96955e-05 21.2715C-0.0023858 20.7074 0.142571 20.1502 0.430888 19.6298C1.19531 18.2992 2.99129 17.4985 5.23623 17.0977C6.39934 16.8817 7.57852 16.7373 8.74511 16.6672ZM15.0654 18.5419C13.0256 18.386 10.9741 18.386 8.91443 18.5433C7.82945 18.6087 6.75113 18.7407 5.67911 18.9397C4.01882 19.2362 2.74942 19.8021 2.3718 20.4592C2.23275 20.7103 2.16112 20.9857 2.16231 21.2692C2.1619 21.5544 2.23449 21.8361 2.37039 22.0857C2.75875 22.7816 3.95659 23.3017 5.71166 23.5998L6.24043 23.6968C7.12602 23.849 8.03812 23.9539 9.05174 24.0202C9.17975 24.0425 9.31788 24.0562 9.48178 24.0634L10.0722 24.0722C11.7375 24.1503 13.4069 24.1279 15.0864 24.0041C16.1687 23.9398 17.244 23.8046 18.3293 23.5947L18.6667 23.5327C20.208 23.2299 21.2744 22.7342 21.6254 22.0927C21.9085 21.5745 21.9085 20.9729 21.6257 20.4552C21.25 19.7686 20.0627 19.2508 18.313 18.9384C17.2487 18.7415 16.1699 18.6094 15.0844 18.5432L15.0654 18.5419ZM12.0064 0C16.4075 0 19.9752 3.10523 19.9752 6.93573C19.9752 10.7662 16.4075 13.8715 12.0064 13.8715C7.6054 13.8715 4.03766 10.7662 4.03766 6.93573C4.03766 3.10523 7.6054 0 12.0064 0ZM12.0064 1.88197C8.7996 1.88197 6.19994 4.14461 6.19994 6.93573C6.19994 9.72684 8.7996 11.9895 12.0064 11.9895C15.2133 11.9895 17.8129 9.72684 17.8129 6.93573C17.8129 4.14461 15.2133 1.88197 12.0064 1.88197Z" fill="#A1A1A1"/>
</svg>
