<svg width="26" height="26" viewBox="0 0 26 26" fill="none" xmlns="http://www.w3.org/2000/svg">
<path d="M18.6664 0C23.0751 0 26 3.14165 26 7.66112V18.3389C26 22.8584 23.0751 26 18.6664 26H7.33355C2.92489 26 0 22.8584 0 18.3389V7.66112C0 3.14587 2.93262 0 7.33355 0H18.6664ZM18.6664 1.81395H7.33355C3.964 1.81395 1.81395 4.12034 1.81395 7.66112V18.3389C1.81395 21.8844 3.95683 24.186 7.33355 24.186H18.6664C22.0432 24.186 24.186 21.8844 24.186 18.3389V7.66112C24.186 4.11564 22.0432 1.81395 18.6664 1.81395ZM13 7.65163C13.4592 7.65163 13.8386 7.99284 13.8987 8.43553L13.907 8.5586L13.9061 12.0809L17.4341 12.0815C17.935 12.0815 18.3411 12.4876 18.3411 12.9885C18.3411 13.4477 17.9999 13.8271 17.5572 13.8872L17.4341 13.8955L13.9061 13.8944L13.907 17.4184C13.907 17.9193 13.5009 18.3254 13 18.3254C12.5408 18.3254 12.1614 17.9841 12.1013 17.5415L12.093 17.4184L12.0926 13.8944L8.56589 13.8955C8.06498 13.8955 7.65891 13.4894 7.65891 12.9885C7.65891 12.5293 8.00012 12.1499 8.44282 12.0898L8.56589 12.0815L12.0926 12.0809L12.093 8.5586C12.093 8.05769 12.4991 7.65163 13 7.65163Z" fill="#1F1F1F"/>
</svg>
