<svg width="26" height="26" viewBox="0 0 26 26" fill="none" xmlns="http://www.w3.org/2000/svg">
<path d="M18.4443 0C22.6172 0 26 3.64158 26 8.13355V17.8665C26 22.3584 22.6172 26 18.4443 26H7.55565C3.38284 26 0 22.3584 0 17.8665V8.13355C0 3.64158 3.38284 0 7.55565 0H18.4443ZM18.4443 2.03418H7.55565C4.42647 2.03418 1.88965 4.76503 1.88965 8.13355V17.8665C1.88965 21.235 4.42647 23.9658 7.55565 23.9658H18.4443C21.5735 23.9658 24.1104 21.235 24.1104 17.8665L24.1098 17.4871L19.9549 17.4882C17.5609 17.4866 15.6206 15.3989 15.6191 12.8214C15.6191 10.3304 17.4332 8.29598 19.7176 8.16169L19.9555 8.15463L24.1098 8.15442L24.1104 8.13355C24.1104 4.8641 21.7206 2.19537 18.7189 2.04121L18.4443 2.03418ZM24.1098 10.1879L19.9561 10.1888C18.6042 10.1897 17.5088 11.3681 17.5088 12.8208C17.5096 14.2058 18.5027 15.3403 19.7643 15.446L19.9555 15.454L24.1098 15.4536V10.1879ZM20.5324 11.7208C21.0542 11.7208 21.4772 12.1761 21.4772 12.7379C21.4772 13.2528 21.1218 13.6783 20.6606 13.7457L20.5324 13.7549H20.1398C19.618 13.7549 19.1949 13.2996 19.1949 12.7379C19.1949 12.2229 19.5504 11.7974 20.0116 11.7301L20.1398 11.7208H20.5324ZM13.46 6.15429C13.9819 6.15429 14.4049 6.60965 14.4049 7.17138C14.4049 7.68629 14.0494 8.11183 13.5883 8.17918L13.46 8.18847H6.65863C6.13682 8.18847 5.71381 7.7331 5.71381 7.17138C5.71381 6.65647 6.06926 6.23092 6.53043 6.16357L6.65863 6.15429H13.46Z" fill="#1F1F1F"/>
</svg>
