<svg width="32" height="32" viewBox="0 0 32 32" fill="none" xmlns="http://www.w3.org/2000/svg">
<path d="M10.0397 3.71436C5.60925 3.71436 2.28571 7.22877 2.28571 12.3263C2.28571 15.8668 4.57142 19.6358 8.22947 23.1802C11.1028 25.9642 14.5184 28.2593 15.9745 28.2856C17.8877 28.3201 23.0157 24.4898 26.1423 20.6192C26.6367 20.0072 26.5444 19.1078 25.9362 18.6104C25.328 18.1129 24.4342 18.2058 23.9399 18.8178C21.3264 22.0532 16.787 25.4438 16.0255 25.43C15.5546 25.4215 12.5534 23.405 10.1981 21.1229C7.04422 18.067 5.12393 14.9006 5.12393 12.3263C5.12393 8.77526 7.20911 6.57033 10.0397 6.57033C11.9535 6.57033 13.6011 7.2151 15.0473 8.5332L16.0008 9.40229L16.9536 8.53237C18.3965 7.2149 20.0432 6.57033 21.9588 6.57033C24.7922 6.57033 26.8761 8.77405 26.8761 12.328C26.8761 12.752 26.8244 13.1941 26.7215 13.6534C26.5492 14.4228 27.0293 15.187 27.7939 15.3604C28.5584 15.5339 29.318 15.0507 29.4903 14.2814C29.6381 13.6215 29.7143 12.9695 29.7143 12.328C29.7143 7.2276 26.3921 3.71436 21.9588 3.71436C19.7481 3.71435 17.7486 4.36092 15.9994 5.63709C14.2483 4.36097 12.2489 3.71435 10.0397 3.71436Z" fill="white"/>
</svg>
