<svg width="46" height="46" viewBox="0 0 46 46" fill="none" xmlns="http://www.w3.org/2000/svg">
<g clip-path="url(#clip0)">
<path d="M46 23.0005C45.9999 35.7029 35.7025 46.0004 23 46.0004C13.6592 46.0004 5.61899 40.4321 2.01743 32.434V24.9477C2.01743 23.3395 1.32114 21.8102 0.108337 20.7543C1.2357 9.12212 11.0279 0.0258009 22.9499 0.000464932C35.6408 -0.026578 46 10.3095 46 23.0005Z" fill="#754CA0"/>
<path d="M41.1916 23C41.1916 33.047 33.0469 41.1916 23.0001 41.1916C12.9532 41.1916 4.80841 33.047 4.80841 23C4.80841 12.953 12.953 4.80844 23 4.80844C33.0469 4.80844 41.1916 12.953 41.1916 23Z" fill="#865CB2"/>
<path d="M0.108352 20.7539H9.61688V32.4336H2.01744C0.721266 29.555 0 26.3618 0 23C0 22.2422 0.0366562 21.493 0.108352 20.7539V20.7539Z" fill="#FFBEAA"/>
<path d="M9.61688 29.6389V32.4336H2.01745C1.61127 31.5315 1.2615 30.5984 0.972656 29.6389H9.61688Z" fill="#FAA68E"/>
<path d="M46 24.8501C46 25.8462 45.1926 26.6537 44.1965 26.6537H29.8281V28.1378H41.5013C42.4973 28.1378 43.3047 28.9452 43.3047 29.9412C43.3047 30.9372 42.4973 31.7448 41.5012 31.7448H30.5702C30.1604 31.7448 29.8281 32.077 29.8281 32.4869C29.8281 32.8967 30.1604 33.229 30.5702 33.229H36.9659C37.9438 33.229 38.7767 33.9894 38.8114 34.9667C38.8479 35.9927 38.027 36.836 37.0092 36.836H18.9958C16.4222 36.836 13.9334 35.9154 11.9794 34.2405L8.71844 31.4453V20.6641L14.1091 17.9687H25.5761C25.648 17.96 25.7211 17.9555 25.7953 17.9555H41.458C42.4359 17.9555 43.2688 18.716 43.3035 19.6933C43.34 20.7193 42.5191 21.5626 41.5013 21.5626H29.8281V23.0467H44.1966C45.1926 23.0466 46 23.8541 46 24.8501V24.8501Z" fill="#C2EAF2"/>
<path d="M20.1735 21.5625C20.1735 25.4018 17.0499 28.5254 13.2106 28.5254C12.8384 28.5254 12.5368 28.2237 12.5368 27.8516C12.5368 27.4794 12.8384 27.1777 13.2106 27.1777C16.3069 27.1777 18.8259 24.6587 18.8259 21.5625C18.8259 21.1904 19.1275 20.8887 19.4997 20.8887C19.8719 20.8887 20.1735 21.1904 20.1735 21.5625Z" fill="#7CD2E3"/>
<path d="M43.622 16.3894C41.2732 22.06 35.0348 28.6947 29.3969 29.6389C29.3966 29.6386 29.3963 29.6382 29.3962 29.6378C23.7587 28.6924 17.5215 22.0586 15.173 16.3888C15.0996 16.2115 15.0293 16.0338 14.9623 15.8556C11.4478 6.51511 24.6588 0.680387 29.3976 8.78861C34.1368 0.681465 47.3468 6.5161 43.8326 15.8564C43.7656 16.0345 43.6954 16.2122 43.622 16.3894Z" fill="#FB5858"/>
<path d="M34.3134 27.5639C32.6963 28.622 31.0216 29.3668 29.3968 29.6389C29.3965 29.6386 29.3962 29.6382 29.3961 29.6378C23.7586 28.6924 17.5214 22.0586 15.1729 16.3888C15.0995 16.2115 15.0292 16.0338 14.9622 15.8556C13.6663 12.4114 14.6445 9.44384 16.6336 7.47626C16.7409 8.34756 16.9623 9.2522 17.3128 10.1838C17.3992 10.4134 17.4897 10.6424 17.5843 10.8708C20.39 17.6444 27.5026 25.4855 34.3134 27.5639Z" fill="#F44545"/>
<path d="M28.7566 14.3816C28.7566 15.3777 27.9491 16.1852 26.953 16.1852H19.5256C19.2873 16.1852 19.0587 16.2799 18.8903 16.4483L10.8986 24.44C10.1943 25.1443 9.05239 25.1443 8.3481 24.44C7.64381 23.7357 7.64381 22.5938 8.3481 21.8895L17.1179 13.1197C17.4689 12.7688 17.9284 12.5928 18.3883 12.5915C18.4603 12.5828 18.5335 12.5782 18.6078 12.5782H26.9531C27.9491 12.5781 28.7566 13.3856 28.7566 14.3816V14.3816Z" fill="#C2EAF2"/>
<path d="M26.9531 16.1851H25.4758C24.4798 16.1851 23.6724 15.3777 23.6724 14.3816C23.6724 13.3855 24.4798 12.578 25.4758 12.578H26.9531C27.9491 12.578 28.7566 13.3855 28.7566 14.3816C28.7566 15.3777 27.9491 16.1851 26.9531 16.1851ZM24.2578 33.6914C24.2578 34.4357 22.4477 35.0391 20.2148 35.0391C17.982 35.0391 16.1719 34.4357 16.1719 33.6914C16.1719 32.9471 17.982 32.3438 20.2148 32.3438C22.4477 32.3438 24.2578 32.9471 24.2578 33.6914ZM38.8857 35.0324C38.8857 34.0364 38.0783 33.2289 37.0823 33.2289H35.605C34.609 33.2289 33.8016 34.0363 33.8016 35.0324C33.8016 36.0284 34.609 36.8359 35.605 36.8359H37.0823C38.0783 36.8359 38.8857 36.0285 38.8857 35.0324ZM43.3047 29.9413C43.3047 28.9453 42.4973 28.1378 41.5013 28.1378H40.024C39.0279 28.1378 38.2205 28.9452 38.2205 29.9413C38.2205 30.9373 39.0279 31.7449 40.024 31.7449H41.5013C42.4973 31.7448 43.3047 30.9373 43.3047 29.9413ZM46 24.8502C46 23.8541 45.1926 23.0466 44.1966 23.0466H42.7193C41.7233 23.0466 40.9158 23.8541 40.9158 24.8502C40.9158 25.8462 41.7233 26.6537 42.7193 26.6537H44.1966C45.1926 26.6537 46 25.8462 46 24.8502Z" fill="#DEF4F8"/>
<path d="M7.05957 33.716V19.4715C7.05957 18.5681 7.867 17.8358 8.86309 17.8358C9.8591 17.8358 10.6666 18.5681 10.6666 19.4715V33.7161C10.6666 34.6195 9.85919 35.3518 8.86309 35.3518C7.867 35.3517 7.05957 34.6194 7.05957 33.716Z" fill="#DEF4F8"/>
<path d="M10.6665 19.4715V30.1224C10.6665 31.0257 9.85907 31.7581 8.86297 31.7581C7.86687 31.7581 7.05945 31.0257 7.05945 30.1224V19.4715C7.05945 18.5681 7.86687 17.8358 8.86297 17.8358C9.85907 17.8358 10.6665 18.5681 10.6665 19.4715V19.4715Z" fill="#FFF5F5"/>
<path d="M36.6113 10.5566C36.6113 10.9288 36.3096 11.2305 35.9375 11.2305H35.4883V11.6797C35.4883 12.0518 35.1866 12.3535 34.8145 12.3535C34.4423 12.3535 34.1406 12.0518 34.1406 11.6797V11.2305H33.6914C33.3193 11.2305 33.0176 10.9288 33.0176 10.5566C33.0176 10.1845 33.3193 9.88281 33.6914 9.88281H34.1406V9.43359C34.1406 9.06146 34.4423 8.75977 34.8145 8.75977C35.1866 8.75977 35.4883 9.06146 35.4883 9.43359V9.88281H35.9375C36.3096 9.88281 36.6113 10.1845 36.6113 10.5566Z" fill="#C2EAF2"/>
<path d="M46 14.3827C45.9994 14.7545 45.6978 15.0554 45.3262 15.0554H45.3249L41.5515 15.0488C41.2967 15.0484 41.0639 14.9043 40.95 14.6763L39.7563 12.2891L38.5618 14.6825L36.7644 18.2706C36.6616 18.4758 36.4613 18.6146 36.233 18.6389C36.2093 18.6414 36.1855 18.6427 36.1618 18.6427C35.9587 18.6427 35.7648 18.5508 35.6361 18.3902L32.96 15.0512L31.2252 15.0555H31.2204C30.8505 15.0555 30.5493 14.7569 30.5467 14.3863C30.5442 14.0142 30.8437 13.7104 31.2159 13.7078L33.277 13.7013H33.2817C33.4861 13.7013 33.6796 13.7941 33.8076 13.9537L36.0303 16.7271L37.3564 14.0799L39.1529 10.4805C39.2669 10.2521 39.5003 10.1077 39.7556 10.1076H39.7558C40.011 10.1076 40.2443 10.2517 40.3585 10.4801L41.9693 13.7021L45.3272 13.7079C45.6995 13.7084 46.0006 14.0106 46 14.3827V14.3827ZM30.7715 6.51367C30.7715 6.8858 31.0732 7.1875 31.4453 7.1875C31.8174 7.1875 32.1191 6.8858 32.1191 6.51367V6.06445H32.5684C32.9405 6.06445 33.2422 5.76276 33.2422 5.39062C33.2422 5.01849 32.9405 4.7168 32.5684 4.7168H32.1191V4.26758C32.1191 3.89545 31.8174 3.59375 31.4453 3.59375C31.0732 3.59375 30.7715 3.89545 30.7715 4.26758V4.7168H30.3223C29.9501 4.7168 29.6484 5.01849 29.6484 5.39062C29.6484 5.76276 29.9501 6.06445 30.3223 6.06445H30.7715V6.51367Z" fill="#FFF5F5"/>
</g>
<defs>
<clipPath id="clip0">
<rect width="46" height="46" fill="white"/>
</clipPath>
</defs>
</svg>
