<svg width="32" height="32" viewBox="0 0 32 32" fill="none" xmlns="http://www.w3.org/2000/svg">
<path fill-rule="evenodd" clip-rule="evenodd" d="M16 30.2858C8.11023 30.2858 1.71429 23.8899 1.71429 16.0001C1.71429 8.11029 8.11023 1.71436 16 1.71436C23.8898 1.71436 30.2857 8.11029 30.2857 16.0001C30.2857 23.8899 23.8898 30.2858 16 30.2858ZM24.6051 25.9345C27.3848 23.5247 29.1429 19.9677 29.1429 16.0001C29.1429 8.74147 23.2586 2.85721 16 2.85721C8.74141 2.85721 2.85715 8.74147 2.85715 16.0001C2.85715 19.9678 4.61537 23.5249 7.3952 25.9347C8.82106 25.5303 10.7412 25.1744 11.4286 25.1519C12.5711 25.1143 12.9055 23.8676 12.8572 21.5197C11.9266 21.5211 11.1429 18.7767 11.1429 17.6358C10.5714 17.6358 10.0843 15.4511 10.0869 14.881C10.0937 13.7691 10.2751 13.77 10.5475 13.7714C10.5554 13.7714 10.5634 13.7715 10.5715 13.7715C10.2858 12.6282 10.2858 11.2911 10.2858 10.7217C10.2858 7.86252 12.2815 5.94121 16.0001 5.90863C19.7186 5.87606 21.7143 7.86252 21.7143 10.7217C21.7143 11.2911 21.7143 12.6282 21.4286 13.771C21.4372 13.771 21.4458 13.771 21.4544 13.771C21.7331 13.7704 22.0322 13.7697 22.007 14.8796C21.994 15.4511 21.4285 17.6339 20.8572 17.6339C20.8506 18.7767 19.7143 21.5197 19.1429 21.5211C19.1354 23.8625 19.4286 25.1905 20.5701 25.1894C21.257 25.1887 23.1785 25.5344 24.6051 25.9345Z" fill="#4CD964"/>
</svg>
