<svg width="38" height="38" viewBox="0 0 38 38" fill="none" xmlns="http://www.w3.org/2000/svg">
<path d="M23.8118 0.756958H14.1879C13.1617 0.756958 12.3298 1.58888 12.3298 2.61502C12.3298 3.64125 13.1618 4.47309 14.1879 4.47309H23.8118C24.8381 4.47309 25.6699 3.64117 25.6699 2.61502C25.67 1.58888 24.8381 0.756958 23.8118 0.756958Z" fill="#D5E2E8"/>
<path d="M23.5607 4.4729H14.4392V15.1144H23.5607V4.4729Z" fill="#D5E2E8"/>
<path d="M14.4392 15.1149V32.6822C14.4392 35.2011 16.4811 37.243 18.9999 37.243C21.5188 37.243 23.5607 35.2011 23.5607 32.6822V15.1149H14.4392Z" fill="#FF422D"/>
<path d="M26.4271 2.61502C26.4271 1.17318 25.254 0 23.812 0H14.188C12.7461 0 11.573 1.17318 11.573 2.61502C11.573 3.88394 12.4816 4.9443 13.6823 5.18054V15.1148V32.6822C13.6824 35.6145 16.0678 38 19.0001 38C21.9323 38 24.3178 35.6145 24.3178 32.6823V15.1149V5.18054C25.5184 4.9443 26.4271 3.88394 26.4271 2.61502ZM22.8039 14.3579H15.1963V5.23012H22.8039V14.3579ZM22.8039 32.6823C22.8039 34.7797 21.0975 36.4861 19.0001 36.4861C16.9026 36.4861 15.1963 34.7797 15.1963 32.6823V15.8719H22.8039V32.6823ZM23.812 3.71621H23.5608H14.4393H14.1881C13.5809 3.71621 13.087 3.22228 13.087 2.6151C13.087 2.00791 13.5809 1.51391 14.1881 1.51391H23.812C24.4192 1.51391 24.9132 2.00784 24.9132 2.61502C24.9132 3.22221 24.4192 3.71621 23.812 3.71621Z" fill="black"/>
<path d="M17.0575 26.936C17.4756 26.936 17.8144 26.5971 17.8144 26.179V25.25C17.8144 24.8319 17.4756 24.493 17.0575 24.493C16.6394 24.493 16.3005 24.8319 16.3005 25.25V26.179C16.3005 26.5971 16.6394 26.936 17.0575 26.936Z" fill="black"/>
<path d="M17.0575 23.1352C17.4756 23.1352 17.8144 22.7963 17.8144 22.3783V17.9864C17.8144 17.5684 17.4756 17.2295 17.0575 17.2295C16.6394 17.2295 16.3005 17.5684 16.3005 17.9864V22.3783C16.3005 22.7963 16.6394 23.1352 17.0575 23.1352Z" fill="black"/>
</svg>
