<svg width="38" height="38" viewBox="0 0 38 38" fill="none" xmlns="http://www.w3.org/2000/svg">
<g clip-path="url(#clip0)">
<path d="M24.8856 37.2431H13.1144C9.61821 37.2431 6.78394 34.4088 6.78394 30.9126V27.6036C6.78394 26.798 7.32098 26.0912 8.09716 25.8753L16.7651 23.4643C18.2273 23.0576 19.7726 23.0576 21.2347 23.4643L29.9027 25.8753C30.6789 26.0912 31.216 26.798 31.216 27.6036V30.9126C31.216 34.4088 28.3817 37.2431 24.8856 37.2431Z" fill="#D5E2E8"/>
<path d="M22.897 0.756958H15.1034C10.1412 0.756958 6.11865 4.77962 6.11865 9.74167V14.0797C6.11865 14.0797 6.96438 12.7928 19.0002 12.7928C31.137 12.7928 31.8818 14.0797 31.8818 14.0797V9.74167C31.8817 4.77962 27.8591 0.756958 22.897 0.756958Z" fill="#3CC4DC"/>
<path d="M26.2811 28.1534H25.1486C24.7305 28.1534 24.3916 28.4923 24.3916 28.9104C24.3916 29.3285 24.7305 29.6674 25.1486 29.6674H26.2811C26.6992 29.6674 27.0381 29.3285 27.0381 28.9104C27.0381 28.4923 26.6992 28.1534 26.2811 28.1534Z" fill="black"/>
<path d="M11.7191 29.6674H21.6699C22.088 29.6674 22.4269 29.3285 22.4269 28.9104C22.4269 28.4923 22.088 28.1534 21.6699 28.1534H11.7191C11.301 28.1534 10.9622 28.4923 10.9622 28.9104C10.9622 29.3285 11.301 29.6674 11.7191 29.6674Z" fill="black"/>
<path d="M26.2812 32.1984H11.7191C11.301 32.1984 10.9622 32.5372 10.9622 32.9553C10.9622 33.3734 11.301 33.7123 11.7191 33.7123H26.2812C26.6992 33.7123 27.0381 33.3734 27.0381 32.9553C27.0381 32.5372 26.6993 32.1984 26.2812 32.1984Z" fill="black"/>
<path d="M35.5537 25.0178C35.258 24.7222 34.7787 24.7222 34.4831 25.0178L31.9714 27.5295C31.9419 26.5253 31.3195 25.6329 30.4052 25.2501L33.3287 22.3266C33.6243 22.031 33.6243 21.5517 33.3287 21.256C33.0331 20.9604 32.5538 20.9604 32.2582 21.256L28.7461 24.7682L21.4376 22.7353C19.8429 22.2918 18.157 22.2918 16.5622 22.7353L9.25375 24.7682L5.74179 21.2559C5.44617 20.9603 4.96687 20.9603 4.67125 21.2559C4.37564 21.5515 4.37564 22.0308 4.67125 22.3264L7.59481 25.25C6.68043 25.6328 6.05803 26.5251 6.02857 27.5293L3.51693 25.0177C3.22131 24.7221 2.74201 24.7221 2.44632 25.0177C2.15071 25.3133 2.15071 25.7926 2.44632 26.0883L6.02694 29.6689V30.9127C6.02694 34.8207 9.2064 38 13.1144 38H24.8855C28.7935 38 31.973 34.8207 31.973 30.9127V29.6689L35.5536 26.0883C35.8493 25.7927 35.8493 25.3134 35.5537 25.0178ZM30.4591 30.9127C30.4591 33.986 27.9588 36.4862 24.8855 36.4862H13.1146C10.0414 36.4862 7.54108 33.9859 7.54108 30.9127V27.6038C7.54108 27.1399 7.85324 26.7291 8.30019 26.6048L16.9681 24.1938C17.6328 24.009 18.3165 23.9165 19.0002 23.9165C19.6839 23.9165 20.3675 24.0089 21.0322 24.1938L29.7002 26.6048C30.1471 26.7291 30.4593 27.1399 30.4593 27.6038V30.9127H30.4591V30.9127Z" fill="black"/>
<path d="M5.90159 14.805C6.17019 14.8853 6.45652 14.8099 6.65031 14.6185C6.851 14.4972 8.74825 13.5498 19.0002 13.5498C29.2238 13.5498 31.1255 14.4788 31.3378 14.6062C31.4804 14.7535 31.6771 14.8368 31.8818 14.8368C31.9469 14.8368 32.0128 14.8283 32.0781 14.8108C32.4089 14.7221 32.6389 14.4222 32.6389 14.0798V9.74175C32.6387 4.37008 28.2686 0 22.897 0H15.1033C9.73165 0 5.36157 4.37008 5.36157 9.74175V14.0798C5.36157 14.4142 5.58111 14.7091 5.90159 14.805ZM6.87556 9.74175C6.87556 5.20497 10.5665 1.51399 15.1033 1.51399H22.897C27.4338 1.51399 31.1247 5.20497 31.1247 9.74175V12.9193C30.8512 12.8426 30.5242 12.7664 30.1327 12.6924C27.8261 12.2567 24.0805 12.0359 19.0001 12.0359C13.9619 12.0359 10.2294 12.2567 7.90639 12.6922C7.49678 12.769 7.15737 12.8477 6.87549 12.9262V9.74175H6.87556V9.74175Z" fill="black"/>
</g>
<defs>
<clipPath id="clip0">
<rect width="38" height="38" fill="white"/>
</clipPath>
</defs>
</svg>
