<svg width="38" height="38" viewBox="0 0 38 38" fill="none" xmlns="http://www.w3.org/2000/svg">
<g clip-path="url(#clip0)">
<path d="M35.5718 10.6037C35.5254 5.22153 31.138 0.820135 25.7559 0.757643C23.8565 0.7356 22.0782 1.24689 20.5611 2.15088C19.5959 2.72592 18.404 2.72592 17.4389 2.15088C15.9217 1.24689 14.1435 0.735674 12.2441 0.757643C6.86202 0.820135 2.4745 5.22153 2.42811 10.6037C2.40867 12.858 3.14032 14.9404 4.38786 16.6162C5.90756 18.6577 6.88933 21.0513 7.31297 23.5609C8.46128 30.3634 10.7078 37.2431 13.2912 37.2431C15.8852 37.2431 16.1969 30.3069 16.1422 23.4771C16.1266 21.527 17.0173 19.6824 18.5434 18.4682C18.5523 18.461 18.5613 18.4539 18.5702 18.4467C18.8212 18.2456 19.1788 18.2456 19.4298 18.4467C19.4387 18.4539 19.4477 18.461 19.4566 18.4682C20.9826 19.6825 21.8733 21.527 21.8578 23.4771C21.8032 30.3068 22.1148 37.2431 24.7087 37.2431C27.2921 37.2431 29.5387 30.3635 30.6869 23.5609C31.1105 21.0514 32.0923 18.6578 33.612 16.6162C34.8596 14.9404 35.5914 12.858 35.5718 10.6037Z" fill="#D5E2E8"/>
<path d="M24.7088 38C24.1237 38 23.5794 37.7631 23.1348 37.3149C21.6236 35.7916 21.0344 31.7808 21.1009 23.4711C21.1147 21.7551 20.3491 20.1529 19.0001 19.0722C17.6508 20.1534 16.8855 21.7553 16.8992 23.4711C16.9656 31.7809 16.3763 35.7917 14.8653 37.3149C14.4207 37.7631 13.8764 38 13.2913 38C11.7277 38 10.344 36.441 9.0612 33.2341C8.07616 30.7715 7.19029 27.3809 6.5667 23.687C6.1559 21.2536 5.19247 18.9648 3.78075 17.0682C2.3804 15.1872 1.65105 12.9495 1.67131 10.5972C1.69536 7.79474 2.80619 5.15041 4.79911 3.15132C6.79218 1.15217 9.43303 0.0331717 12.2353 0.000663845C14.2091 -0.0210822 16.1413 0.496371 17.8264 1.50055C18.5504 1.93191 19.4496 1.93191 20.1737 1.50055C21.8588 0.496371 23.7895 -0.022344 25.7647 0.000738064C28.567 0.0333201 31.2078 1.15217 33.2008 3.1514C35.1938 5.15055 36.3047 7.79489 36.3288 10.5972C36.3491 12.9495 35.6196 15.1872 34.2193 17.0682C32.8076 18.9647 31.8442 21.2534 31.4334 23.6869C30.8099 27.3808 29.924 30.7713 28.939 33.234C27.6561 36.441 26.2724 38 24.7088 38ZM19 17.5364C19.3186 17.5364 19.6372 17.6429 19.9031 17.856L19.9286 17.8763C21.6529 19.2484 22.6323 21.2922 22.6147 23.4831C22.5905 26.5103 22.5262 34.5518 24.2095 36.2486C24.4182 36.459 24.586 36.486 24.7087 36.486C26.177 36.486 28.5096 31.9119 29.9406 23.4348C30.3911 20.7662 31.4506 18.2519 33.0048 16.1642C34.2063 14.5501 34.8322 12.6296 34.8147 10.6102C34.7721 5.65249 30.7042 1.57217 25.747 1.51465C24.0544 1.49387 22.394 1.93985 20.9484 2.80123C19.7465 3.51737 18.2532 3.5173 17.0512 2.80123C15.6057 1.93985 13.946 1.49528 12.2527 1.51465C7.29561 1.5721 3.22783 5.65242 3.18508 10.6102C3.16771 12.6296 3.79359 14.5501 4.99505 16.1642C6.54926 18.2521 7.60888 20.7663 8.05932 23.4349C9.4904 31.912 11.8229 36.486 13.2911 36.486C13.4139 36.486 13.5816 36.4591 13.7903 36.2486C15.4736 34.5517 15.4093 26.5103 15.3852 23.4831C15.3677 21.2921 16.347 19.2483 18.072 17.8757L18.0967 17.8561C18.3627 17.643 18.6814 17.5364 19 17.5364Z" fill="black"/>
<path d="M5.0833 11.2582C5.08108 11.2582 5.07885 11.2582 5.07663 11.2582C4.65855 11.2546 4.32264 10.9128 4.3262 10.4948C4.35203 7.49176 6.04451 4.78166 8.7431 3.42212C9.11627 3.2339 9.5716 3.38412 9.75975 3.75759C9.94789 4.13091 9.79768 4.58609 9.42428 4.77424C7.23446 5.87743 5.86104 8.07445 5.84011 10.5079C5.83648 10.9236 5.49826 11.2582 5.0833 11.2582Z" fill="black"/>
<path d="M11.5808 4.12486C11.1972 4.12486 10.8684 3.83444 10.8287 3.44457C10.7863 3.02872 11.0891 2.65718 11.5049 2.6148C11.7422 2.59068 11.9836 2.57695 12.2224 2.57413C12.6411 2.57027 12.9833 2.90418 12.9882 3.32226C12.993 3.74026 12.6582 4.08315 12.2401 4.08804C12.0464 4.09035 11.8507 4.1014 11.6585 4.121C11.6324 4.1236 11.6065 4.12486 11.5808 4.12486Z" fill="black"/>
</g>
<defs>
<clipPath id="clip0">
<rect width="38" height="38" fill="white"/>
</clipPath>
</defs>
</svg>
