<svg width="38" height="38" viewBox="0 0 38 38" fill="none" xmlns="http://www.w3.org/2000/svg">
<path d="M3.71716 19.989C-0.22994 23.9361 -0.22994 30.3356 3.71716 34.2826C7.66426 38.2297 14.0637 38.2297 18.0107 34.2826L26.1466 26.1467L11.8531 11.8532L3.71716 19.989Z" fill="#D5E2E8"/>
<path d="M34.2826 3.71724C30.3355 -0.229855 23.936 -0.229855 19.9889 3.71724L11.853 11.8532L26.1467 26.1469L34.2826 18.011C38.2296 14.0639 38.2296 7.66434 34.2826 3.71724Z" fill="#FF422D"/>
<path d="M34.818 3.18205C32.766 1.13005 30.0378 0 27.1359 0C24.2339 0 21.5057 1.13005 19.4538 3.18198L11.3184 11.3175C11.3182 11.3177 11.3181 11.3178 11.318 11.3179L3.18198 19.4538C1.13005 21.5058 0 24.234 0 27.1359C0 30.0377 1.13005 32.7659 3.18198 34.8179C5.23398 36.8699 7.96219 38 10.8641 38C13.7661 38 16.4943 36.8699 18.5462 34.818L26.6817 26.6825C26.6819 26.6823 26.6819 26.6822 26.6821 26.6821L34.8179 18.5462C36.8699 16.4942 38 13.766 38 10.8641C38 7.96219 36.8699 5.23398 34.818 3.18205ZM17.4756 33.7474C15.7097 35.5134 13.3616 36.4861 10.8641 36.4861C8.36668 36.4861 6.01855 35.5134 4.25259 33.7474C2.48655 31.9815 1.51391 29.6334 1.51391 27.1359C1.51391 24.6383 2.48655 22.2903 4.25259 20.5243L11.8532 12.9237L25.0763 26.1468L17.4756 33.7474ZM33.7474 17.4756L26.1468 25.0763L12.9237 11.8532L20.5244 4.25259C22.2903 2.48655 24.6384 1.51391 27.1359 1.51391C29.6333 1.51391 31.9815 2.48655 33.7474 4.25259C35.5134 6.01855 36.4861 8.36661 36.4861 10.8641C36.4861 13.3616 35.5134 15.7097 33.7474 17.4756Z" fill="black"/>
<path d="M4.6881 21.3412L4.38528 21.644C4.08967 21.9397 4.08967 22.419 4.38528 22.7147C4.53313 22.8624 4.72676 22.9363 4.92055 22.9363C5.11433 22.9363 5.30797 22.8624 5.45581 22.7146L5.75863 22.4118C6.05424 22.1162 6.05424 21.6368 5.75863 21.3412C5.46294 21.0455 4.98371 21.0455 4.6881 21.3412Z" fill="black"/>
<path d="M11.4247 14.6042L6.58011 19.4488C6.2845 19.7444 6.2845 20.2237 6.58011 20.5194C6.72795 20.6672 6.92159 20.741 7.11537 20.741C7.30916 20.741 7.5028 20.6672 7.65064 20.5193L12.4953 15.6747C12.7909 15.3791 12.7909 14.8998 12.4953 14.6041C12.1995 14.3085 11.7204 14.3085 11.4247 14.6042Z" fill="black"/>
</svg>
